<svg width="720" height="600" viewBox="0 0 720 600" fill="none" xmlns="http://www.w3.org/2000/svg">
<g clip-path="url(#clip0)">
<path opacity="0.1" d="M239.37 599.663C274.434 599.663 302.858 594.292 302.858 587.666C302.858 581.041 274.434 575.67 239.37 575.67C204.307 575.67 175.882 581.041 175.882 587.666C175.882 594.292 204.307 599.663 239.37 599.663Z" fill="#4E85CA"/>
<path opacity="0.1" d="M584.482 600C628.236 600 663.705 594.629 663.705 588.004C663.705 581.378 628.236 576.007 584.482 576.007C540.728 576.007 505.259 581.378 505.259 588.004C505.259 594.629 540.728 600 584.482 600Z" fill="#4E85CA"/>
<path opacity="0.1" d="M9.0176 259.243H75.1444V365.278H13.8587C13.6958 366.367 13.5394 367.463 13.37 368.559H75.1444V454.074C75.0337 454.036 74.9359 453.99 74.8317 453.944C73.0855 453.131 71.3523 452.273 69.6192 451.353L68.5115 450.763C66.7741 449.797 65.0366 448.775 63.2991 447.697C62.6931 447.321 62.0872 446.93 61.4877 446.531C51.8419 440.175 43.0792 432.12 35.5035 422.646C35.282 422.393 35.0735 422.125 34.852 421.88C33.7964 420.53 32.7605 419.166 31.757 417.771L30.6494 416.238C29.4636 414.528 28.3168 412.773 27.2026 410.995C27.0397 410.734 26.8834 410.473 26.714 410.228C22.1827 402.837 18.4203 394.833 15.5071 386.389C15.4159 386.136 15.3377 385.86 15.253 385.622C14.3582 382.914 13.5655 380.18 12.8748 377.42C12.5751 376.263 12.2884 375.121 12.0408 373.917C11.9496 373.565 11.8714 373.22 11.7998 372.875C8.0989 355.881 7.66235 338.227 7.66235 320.697C7.66235 318.65 7.66235 316.596 7.66235 314.564C7.66235 307.474 7.73403 300.337 7.83828 293.208C7.83828 291.361 7.90343 289.521 7.93601 287.666C8.02723 282.96 8.15754 278.253 8.32695 273.547C8.36604 272.236 8.41816 270.933 8.4768 269.63C8.4768 268.879 8.50938 268.127 8.57454 267.376C8.73091 264.647 8.86123 261.941 9.0176 259.243Z" fill="#4E85CA"/>
<path opacity="0.1" d="M75.1444 141.181H38.8721C44.7683 130.324 51.2107 119.89 58.1648 109.937C63.5532 102.149 69.2413 94.5601 75.1444 87.2474V141.181Z" fill="#4E85CA"/>
<path opacity="0.1" d="M75.1444 144.462V255.962H9.2261C9.2261 255.64 9.27171 255.311 9.29126 254.989C9.3499 254.107 9.40854 253.226 9.4737 252.352C9.54537 251.325 9.62355 250.29 9.70826 249.286C9.79296 248.282 9.88418 247.055 9.98191 245.944C10.0796 244.832 10.1709 243.705 10.2816 242.594C10.3924 241.482 10.4901 240.371 10.6074 239.267C10.7247 238.163 10.8289 237.044 10.9527 235.94C11.0505 235.021 11.1547 234.108 11.259 233.189C11.4088 231.893 11.5652 230.59 11.7346 229.302C11.7346 229.111 11.7802 228.911 11.8063 228.727C12.9955 219.3 14.6159 209.955 16.6604 200.733C18.8005 191.06 21.5334 181.581 24.8375 172.371C28.3492 162.737 32.4608 153.422 37.1389 144.5L75.1444 144.462Z" fill="#4E85CA"/>
<path opacity="0.1" d="M90.9317 259.235V365.278H232.17V259.235H90.9317ZM90.9317 368.551V459.616C91.7397 459.815 92.5411 460.007 93.336 460.168C94.4176 460.413 95.4927 460.636 96.5938 460.827C96.8023 460.866 97.0173 460.904 97.2454 460.927C97.6754 461.011 98.1184 461.08 98.5485 461.149C99.6366 461.326 100.718 461.471 101.806 461.586C102.321 461.648 102.842 461.701 103.364 461.747L104.621 461.862C105.305 461.923 105.983 461.969 106.654 461.992C107.071 461.992 107.488 462.038 107.918 462.054C108.244 462.054 108.569 462.054 108.908 462.054C109.247 462.054 109.729 462.054 110.14 462.054C110.7 462.054 111.26 462.054 111.814 462.054H112.564C113.124 462.054 113.684 462.054 114.238 461.992H114.277C114.662 461.992 115.052 461.992 115.443 461.931C115.552 461.939 115.661 461.939 115.769 461.931C116.095 461.931 116.421 461.931 116.734 461.877H116.962L119.144 461.678C119.861 461.602 120.584 461.502 121.314 461.41L122.8 461.203C128.843 460.207 134.82 458.711 140.685 456.726C153.859 452.403 166.747 446.355 179.915 441.925C196.941 436.214 215.751 433.408 232.203 440.391V368.551H90.9317ZM232.17 141.181V0.00766829C216.707 -0.189427 201.286 1.93833 186.281 6.33927C150.517 16.9098 118.428 39.837 90.9317 69.1187V141.173H98.0207V144.446H90.9317V255.962H232.17V144.454H127.126V141.181H232.17ZM413.584 93.4947C404.736 93.1267 395.94 89.8306 387.985 84.7408C372.771 75.0057 360.619 59.9739 347.04 47.2877C318.828 20.8652 283.839 4.92118 247.945 0.965841V141.181H449.57L450.072 140.56L413.584 93.4947ZM431.952 89.662L451.427 114.804V83.0697C444.905 84.0202 439.191 86.2815 431.978 89.6313L431.952 89.662ZM451.427 482.229V368.551H409.929C409.818 368.069 409.708 367.578 409.577 367.087C409.701 367.578 409.805 368.069 409.923 368.551H247.971V450.763C249.508 452.104 251.027 453.515 252.532 454.948C254.154 456.481 255.757 458.098 257.366 459.685L258.989 461.264C259.764 462.031 260.546 462.797 261.334 463.518C262.898 465.01 264.477 466.482 266.071 467.933C266.859 468.7 267.667 469.39 268.469 470.11C281.192 481.554 294.613 491.882 308.624 501.009C311.765 503.053 314.934 505.049 318.131 506.996C320.261 508.276 322.405 509.548 324.555 510.783C327.787 512.638 331.045 514.426 334.329 516.148C364.604 532.137 396.618 543.109 429.456 548.749C436.749 550.017 444.071 551.013 451.42 551.739V482.221H452.072L451.427 482.229ZM247.971 144.454V255.962H451.453V144.454H247.971ZM247.971 259.235V365.278H451.453V259.235H247.971ZM467.247 82.9318V118.33L492.104 86.2432C483.868 84.6795 475.582 83.5629 467.247 82.8934V82.9318ZM467.247 259.274V365.278H665.158V259.235L467.247 259.274ZM664.435 490.646L665.132 368.551H467.247V552.958C479.995 553.588 492.762 553.408 505.493 552.421H505.715C511.796 551.971 517.849 551.317 523.874 550.459H524.011C556.153 546.058 587.581 536.192 617.314 521.169L664.435 490.646ZM703.32 276.697C702.577 274.635 701.802 272.589 701.014 270.565C699.541 266.732 697.984 263.007 696.381 259.281H680.939V365.278H719.98C719.961 335.261 713.504 304.599 703.34 276.659L703.32 276.697ZM680.939 368.59V473.605C691.937 461.203 701.229 447.014 707.92 430.794C715.967 411.263 719.648 390.114 719.948 368.574L680.939 368.59ZM680.939 228.375V255.97H694.935C690.701 246.471 686.035 237.246 680.959 228.336L680.939 228.375ZM546.718 103.736C545.688 103.276 544.659 102.808 543.623 102.356C532.697 97.6089 521.531 93.6613 510.191 90.5358L472.153 139.648L471.423 140.56L471.912 141.189H607.293C588.438 125.92 568.111 113.335 546.737 103.697L546.718 103.736ZM611.261 144.492H470.022L467.247 147.482V255.962H491.576H491.615H665.184V203.416C649.483 181.076 631.361 161.253 611.281 144.454L611.261 144.492Z" fill="#4E85CA"/>
<path opacity="0.1" d="M75.1444 200.703V255.962H9.2261C9.2261 255.64 9.27171 255.311 9.29126 254.989C9.3499 254.107 9.40854 253.226 9.4737 252.352C9.54537 251.325 9.62355 250.29 9.70826 249.286C9.79296 248.282 9.88418 247.055 9.98191 245.944C10.0796 244.832 10.1709 243.705 10.2816 242.594C10.3924 241.482 10.4901 240.371 10.6074 239.267C10.7247 238.163 10.8289 237.044 10.9527 235.94C11.0505 235.021 11.1547 234.108 11.259 233.189C11.4088 231.893 11.5652 230.59 11.7346 229.302C11.7346 229.111 11.7802 228.911 11.8063 228.727C12.9955 219.3 14.6159 209.955 16.6604 200.733L75.1444 200.703Z" fill="#4E85CA"/>
<path opacity="0.1" d="M9.0176 259.243H75.1444V365.278H13.8587C13.6958 366.367 13.5394 367.463 13.37 368.559H75.1444V454.074C75.0337 454.036 74.9359 453.99 74.8317 453.944C73.0855 453.131 71.3523 452.273 69.6192 451.353L68.5115 450.763C66.7741 449.797 65.0366 448.775 63.2991 447.697C62.6931 447.321 62.0872 446.93 61.4877 446.531C51.8419 440.175 43.0792 432.12 35.5035 422.646C35.282 422.393 35.0735 422.125 34.852 421.88C33.7964 420.53 32.7605 419.166 31.757 417.771L30.6494 416.238C29.4636 414.528 28.3168 412.773 27.2026 410.995C27.0397 410.734 26.8834 410.473 26.714 410.228C22.1827 402.837 18.4203 394.833 15.5071 386.389C15.4159 386.136 15.3377 385.86 15.253 385.622C14.3582 382.914 13.5655 380.18 12.8748 377.42C12.5751 376.263 12.2884 375.121 12.0408 373.917C11.9496 373.565 11.8714 373.22 11.7998 372.875C8.0989 355.881 7.66235 338.227 7.66235 320.697C7.66235 318.65 7.66235 316.596 7.66235 314.564C7.66235 307.474 7.73403 300.337 7.83828 293.208C7.83828 291.361 7.90343 289.521 7.93601 287.666C8.02723 282.96 8.15754 278.253 8.32695 273.547C8.36604 272.236 8.41816 270.933 8.4768 269.63C8.4768 268.879 8.50938 268.127 8.57454 267.376C8.73091 264.647 8.86123 261.941 9.0176 259.243Z" fill="#4E85CA"/>
<path opacity="0.1" d="M140.652 160.421V255.962H90.9317V160.421H98.0207V128.073H127.119V160.421H140.652Z" fill="#4E85CA"/>
<path opacity="0.1" d="M140.652 259.236H90.9382V365.271H140.652V259.236Z" fill="#4E85CA"/>
<path opacity="0.1" d="M90.9317 368.559H140.652V456.711C134.787 458.694 128.811 460.187 122.767 461.18L121.281 461.395C120.552 461.494 119.828 461.579 119.112 461.663C118.395 461.747 117.652 461.809 116.929 461.862H116.701C116.388 461.862 116.049 461.908 115.743 461.916H115.411C115.02 461.916 114.629 461.962 114.238 461.977C113.684 462.015 113.13 462.023 112.564 462.031C112.322 462.031 112.094 462.031 111.853 462.031C111.293 462.031 110.739 462.031 110.179 462.031H108.947C108.615 462.031 108.296 462.031 107.95 462.031L106.693 461.977C106.041 461.977 105.338 461.893 104.66 461.839L103.409 461.732L101.852 461.563C100.757 461.448 99.6691 461.303 98.5941 461.126L97.291 460.912L96.6394 460.804C95.5513 460.605 94.4762 460.39 93.3816 460.145C92.5802 459.984 91.7853 459.785 90.9773 459.593L90.9317 368.559Z" fill="#4E85CA"/>
<path opacity="0.1" d="M451.453 149.138H410.457V255.955H451.453V149.138Z" fill="#4E85CA"/>
<path opacity="0.1" d="M451.459 259.236V365.278H247.971V319.539H356.358V346.521H410.457V259.236H451.459Z" fill="#4E85CA"/>
<path opacity="0.1" d="M452.105 482.252H451.453V551.815C444.112 551.085 436.793 550.091 429.495 548.834C396.641 543.175 364.614 532.18 334.329 516.164C325.585 511.534 317.019 506.48 308.631 501.002C294.62 491.87 281.197 481.542 268.469 470.102C265.272 467.22 262.116 464.272 259.002 461.257C256.845 459.164 254.701 457.018 252.532 454.933C251.027 453.499 249.508 452.089 247.971 450.74V368.559H409.916C409.805 368.069 409.694 367.578 409.577 367.095C409.701 367.578 409.818 368.069 409.929 368.559H451.453V482.206C451.674 482.214 451.89 482.237 452.105 482.252Z" fill="#4E85CA"/>
<path opacity="0.1" d="M558.374 141.181H531.66V131.415H543.636V102.325C544.674 102.77 545.708 103.227 546.737 103.697V131.415H558.374V141.181Z" fill="#4E85CA"/>
<path opacity="0.1" d="M622.735 255.962H491.589C491.589 255.962 491.589 255.962 491.635 256.001L491.576 255.962H467.247V149.145H474.14V228.099H505.643V181.34H531.666V144.462H558.38V181.371H584.404V228.129H622.735V255.962Z" fill="#4E85CA"/>
<path opacity="0.1" d="M467.247 259.236V365.278H622.735V259.236H467.247ZM664.943 490.101L665.158 406.166H622.735V368.605H467.247V552.958C479.995 553.588 492.762 553.408 505.493 552.421H505.715C511.796 551.971 517.849 551.317 523.874 550.459H524.011C556.153 546.058 587.581 536.192 617.314 521.169" fill="#4E85CA"/>
<path opacity="0.1" d="M683.702 368.559H719.974C719.655 390.091 715.98 411.24 707.94 430.771C701.248 446.999 691.95 461.188 680.965 473.583V406.127H683.702V368.559Z" fill="#4E85CA"/>
<path opacity="0.1" d="M719.993 365.278H683.701V276.659H703.339C713.504 304.599 719.961 335.261 719.993 365.278Z" fill="#4E85CA"/>
<path opacity="0.1" d="M451.459 178.833H429.495V212.323H451.459V178.833Z" fill="#4E85CA"/>
<path opacity="0.1" d="M451.459 248.251H429.495V255.962H451.459V248.251Z" fill="#4E85CA"/>
<path opacity="0.1" d="M451.459 259.236H429.495V281.733H451.459V259.236Z" fill="#4E85CA"/>
<path opacity="0.1" d="M451.459 317.669H429.495V351.159H451.459V317.669Z" fill="#4E85CA"/>
<path opacity="0.1" d="M451.459 387.086H429.495V420.576H451.459V387.086Z" fill="#4E85CA"/>
<path opacity="0.1" d="M451.453 482.206C451.674 482.206 451.889 482.206 452.104 482.252H451.453V490.032H429.495V456.504H451.453V482.206Z" fill="#4E85CA"/>
<path opacity="0.1" d="M451.453 525.906V551.777C444.112 551.046 436.793 550.052 429.495 548.795V525.906H451.453Z" fill="#4E85CA"/>
<path opacity="0.1" d="M342.102 362.818H247.971V365.278H342.102V362.818Z" fill="#4E85CA"/>
<path opacity="0.1" d="M342.102 368.552H247.971V377.98H342.102V368.552Z" fill="#4E85CA"/>
<path opacity="0.1" d="M342.102 408.887H247.971V424.049H342.102V408.887Z" fill="#4E85CA"/>
<path opacity="0.1" d="M342.095 454.956V470.118H268.469C265.272 467.246 262.114 464.297 258.995 461.272C256.838 459.179 254.701 457.033 252.525 454.956H342.095Z" fill="#4E85CA"/>
<path opacity="0.1" d="M342.095 501.017V516.164H334.322C325.587 511.529 317.023 506.472 308.631 500.994L342.095 501.017Z" fill="#4E85CA"/>
<path opacity="0.1" d="M524.03 269.515H505.5V291.315H524.03V269.515Z" fill="#4E85CA"/>
<path opacity="0.1" d="M122.813 167.941H104.282V189.741H122.813V167.941Z" fill="#4E85CA"/>
<path opacity="0.1" d="M122.813 218.578H104.282V240.379H122.813V218.578Z" fill="#4E85CA"/>
<path opacity="0.1" d="M122.813 269.216H104.282V291.016H122.813V269.216Z" fill="#4E85CA"/>
<path opacity="0.1" d="M122.813 319.846H104.282V341.646H122.813V319.846Z" fill="#4E85CA"/>
<path opacity="0.1" d="M122.813 370.483H104.282V392.284H122.813V370.483Z" fill="#4E85CA"/>
<path opacity="0.1" d="M122.813 421.121H104.282V442.921H122.813V421.121Z" fill="#4E85CA"/>
<path opacity="0.1" d="M594.77 269.515H576.24V291.315H594.77V269.515Z" fill="#4E85CA"/>
<path opacity="0.1" d="M524.03 323.287H505.5V345.088H524.03V323.287Z" fill="#4E85CA"/>
<path opacity="0.1" d="M594.77 323.287H576.24V345.088H594.77V323.287Z" fill="#4E85CA"/>
<path opacity="0.1" d="M524.03 377.052H505.5V398.853H524.03V377.052Z" fill="#4E85CA"/>
<path opacity="0.1" d="M594.77 377.052H576.24V398.853H594.77V377.052Z" fill="#4E85CA"/>
<path opacity="0.1" d="M524.03 430.825H505.5V452.625H524.03V430.825Z" fill="#4E85CA"/>
<path opacity="0.1" d="M594.77 430.825H576.24V452.625H594.77V430.825Z" fill="#4E85CA"/>
<path opacity="0.1" d="M524.03 484.598H505.5V506.398H524.03V484.598Z" fill="#4E85CA"/>
<path opacity="0.1" d="M594.77 484.598H576.24V506.398H594.77V484.598Z" fill="#4E85CA"/>
<path opacity="0.1" d="M505.5 552.421V538.363H524.024V550.42L505.5 552.421Z" fill="#4E85CA"/>
<path opacity="0.1" d="M11.7281 228.712V241.184H75.1444V228.712H11.7281ZM18.0482 240.402H12.8748V229.478H18.0873L18.0482 240.402ZM24.3618 240.402H19.1494V229.478H24.3618V240.402ZM30.6624 240.402H25.4499V229.478H30.6624V240.402ZM36.976 240.402H31.7701V229.478H36.9826L36.976 240.402ZM43.2831 240.402H38.0707V229.478H43.2831V240.402ZM49.5968 240.402H44.3843V229.478H49.5968V240.402ZM55.9104 240.402H50.6979V229.478H55.9104V240.402ZM62.2175 240.402H57.005V229.478H62.2175V240.402ZM68.5246 240.402H63.3121V229.478H68.5246V240.402ZM74.8317 240.402H69.6192V229.478H74.8317V240.402Z" fill="#4E85CA"/>
<path opacity="0.1" d="M11.7281 265V277.471H75.1444V265H11.7281ZM18.0482 276.682H12.8748V265.789H18.0873L18.0482 276.682ZM24.3618 276.682H19.1494V265.789H24.3618V276.682ZM30.6624 276.682H25.4499V265.789H30.6624V276.682ZM36.976 276.682H31.7701V265.789H36.9826L36.976 276.682ZM43.2831 276.682H38.0707V265.789H43.2831V276.682ZM49.5968 276.682H44.3843V265.789H49.5968V276.682ZM55.9104 276.682H50.6979V265.789H55.9104V276.682ZM62.2175 276.682H57.005V265.789H62.2175V276.682ZM68.5246 276.682H63.3121V265.789H68.5246V276.682ZM74.8317 276.682H69.6192V265.789H74.8317V276.682Z" fill="#4E85CA"/>
<path opacity="0.1" d="M11.7281 301.303V313.798H75.1444V301.303H11.7281ZM18.0482 312.985H12.8748V302.085H18.0873L18.0482 312.985ZM24.3618 312.985H19.1494V302.085H24.3618V312.985ZM30.6624 312.985H25.4499V302.085H30.6624V312.985ZM36.976 312.985H31.7701V302.085H36.9826L36.976 312.985ZM43.2831 312.985H38.0707V302.085H43.2831V312.985ZM49.5968 312.985H44.3843V302.085H49.5968V312.985ZM55.9104 312.985H50.6979V302.085H55.9104V312.985ZM62.2175 312.985H57.005V302.085H62.2175V312.985ZM68.5246 312.985H63.3121V302.085H68.5246V312.985ZM74.8317 312.985H69.6192V302.085H74.8317V312.985Z" fill="#4E85CA"/>
<path opacity="0.1" d="M11.7281 337.606V350.063H75.1444V337.606H11.7281ZM18.0482 349.288H12.8748V338.381H18.0873L18.0482 349.288ZM24.3618 349.288H19.1494V338.381H24.3618V349.288ZM30.6624 349.288H25.4499V338.381H30.6624V349.288ZM36.976 349.288H31.7701V338.381H36.9826L36.976 349.288ZM43.2831 349.288H38.0707V338.381H43.2831V349.288ZM49.5968 349.288H44.3843V338.381H49.5968V349.288ZM55.9104 349.288H50.6979V338.381H55.9104V349.288ZM62.2175 349.288H57.005V338.381H62.2175V349.288ZM68.5246 349.288H63.3121V338.381H68.5246V349.288ZM74.8317 349.288H69.6192V338.381H74.8317V349.288Z" fill="#4E85CA"/>
<path opacity="0.1" d="M12.0017 373.902C12.2558 375.075 12.5425 376.248 12.8422 377.405V374.684H18.0547V385.584H15.2661C15.3508 385.837 15.4355 386.113 15.5202 386.351H75.1444V373.902H12.0017ZM24.3814 385.584H19.1689V374.684H24.3814V385.584ZM30.682 385.584H25.4695V374.684H30.682V385.584ZM36.9956 385.584H31.7701V374.684H36.9825L36.9956 385.584ZM43.3027 385.584H38.0902V374.684H43.3027V385.584ZM49.6163 385.584H44.4038V374.684H49.6163V385.584ZM55.9299 385.584H50.7174V374.684H55.9299V385.584ZM62.237 385.584H57.0245V374.684H62.237V385.584ZM68.5441 385.584H63.3316V374.684H68.5441V385.584ZM74.8512 385.584H69.6387V374.684H74.8512V385.584Z" fill="#4E85CA"/>
<path opacity="0.1" d="M26.727 410.205C26.8899 410.45 27.0463 410.726 27.2157 410.972H30.6624V416.207C31.0338 416.728 31.3987 417.25 31.7766 417.74V410.941H36.9891V421.88H34.878C35.0865 422.133 35.2885 422.401 35.5296 422.646H75.164V410.205H26.727ZM43.2831 421.88H38.0706V410.987H43.2831V421.88ZM49.5967 421.88H44.3843V410.987H49.5967V421.88ZM55.9104 421.88H50.6979V410.987H55.9104V421.88ZM62.2175 421.88H57.005V410.987H62.2175V421.88ZM68.5246 421.88H63.3121V410.987H68.5246V421.88ZM74.8317 421.88H69.6192V410.987H74.8317V421.88Z" fill="#4E85CA"/>
<path opacity="0.1" d="M61.5138 446.501C62.1067 446.899 62.7127 447.267 63.3251 447.666V447.283H68.5376V450.732L69.6453 451.338V447.283H74.8577V453.913C74.9577 453.972 75.0625 454.018 75.1705 454.051V446.501H61.5138Z" fill="#4E85CA"/>
<path opacity="0.1" d="M491.589 255.962H491.628H491.589ZM451.453 482.198H452.105H451.453ZM409.577 367.087C409.701 367.578 409.805 368.069 409.922 368.551C409.818 368.069 409.707 367.578 409.577 367.087ZM491.589 255.939H491.628H491.589ZM98.0468 141.158V144.431H127.152V141.158H98.0468ZM451.453 482.198H452.105H451.453ZM409.577 367.087C409.701 367.578 409.805 368.069 409.922 368.551C409.818 368.069 409.707 367.578 409.577 367.087ZM491.589 255.939H491.628H491.589ZM451.453 482.175H452.105H451.453ZM409.577 367.087C409.701 367.578 409.805 368.069 409.922 368.551C409.818 368.069 409.707 367.578 409.577 367.087Z" fill="#4E85CA"/>
<path d="M300.76 291.031C300.76 291.031 298.193 290.61 298.193 286.21C298.193 281.81 296.356 273.593 296.356 273.593C296.356 273.554 294.766 259.282 292.57 257.013C290.374 254.744 287.553 241.421 287.553 241.421C287.553 241.421 287.071 234.193 286.087 232.637C285.103 231.081 283.774 227.271 281.813 221.836C279.852 216.401 271.674 212.638 271.674 212.638C271.674 212.638 256.891 202.55 252.701 199.262C252.32 198.991 251.964 198.675 251.639 198.319C250.909 197.192 247.73 197.169 247.73 197.169C247.397 194.701 247.078 191.864 246.974 189.297C246.974 189.021 246.974 188.745 246.941 188.469C251.613 185.22 255.132 180.098 256.852 174.042C256.93 173.751 256.995 173.445 257.067 173.153C257.346 173.045 257.604 172.869 257.823 172.636C258.042 172.404 258.217 172.121 258.337 171.804C258.715 170.815 258.721 169.658 259.191 168.738C259.738 167.65 260.78 167.067 261.601 166.247C263.673 164.177 264.208 160.689 264.11 157.516C264.045 154.948 263.693 152.357 263.83 149.805L263.869 149.161C263.908 148.777 263.954 148.394 264.012 148.026C264.331 146.125 265.029 144.331 265.42 142.446C265.81 140.56 265.85 138.437 264.937 136.812C263.602 134.428 260.82 133.953 258.376 133.707C255.607 133.431 253.131 133.792 251.359 131.086C250.529 129.671 249.596 128.345 248.57 127.123C248.205 126.724 244.661 124.179 244.661 124.011C241.201 122.126 237.28 121.772 233.617 123.014C231.779 123.643 230.046 124.67 228.183 125.183C224.163 126.302 219.537 125.091 216.122 127.797C214.22 129.33 213.08 131.768 212.011 134.144C211.142 136.101 210.261 138.056 209.366 140.008C207.926 143.22 206.46 146.485 205.854 150.042C205.726 150.816 205.648 151.6 205.619 152.388V152.426C205.619 152.71 205.619 152.993 205.619 153.277V153.637C205.619 153.906 205.619 154.166 205.658 154.404C205.698 154.641 205.691 154.718 205.711 154.879C205.73 155.04 205.763 155.4 205.802 155.646C205.841 155.891 205.919 156.32 205.997 156.657C206.03 156.803 206.075 156.941 206.114 157.079C206.18 157.34 206.258 157.593 206.343 157.846C206.388 157.976 206.434 158.114 206.486 158.244C206.584 158.512 206.701 158.773 206.818 159.011C206.87 159.118 206.909 159.218 206.962 159.317C207.143 159.674 207.343 160.017 207.561 160.344C208.955 162.391 211.008 163.694 212.526 165.611C212.526 165.687 212.526 165.764 212.526 165.833C212.526 166.047 212.526 166.254 212.526 166.469C212.606 170.743 213.573 174.929 215.343 178.663C217.112 182.397 219.63 185.566 222.677 187.894C222.677 188.185 222.71 188.484 222.723 188.775C222.85 191.051 222.826 193.334 222.651 195.605C222.386 195.238 222.054 194.945 221.679 194.748C221.305 194.552 220.898 194.457 220.488 194.471C220.208 194.455 219.927 194.483 219.654 194.555L219.595 194.501V194.57C218.162 194.984 216.396 196.74 214.709 201.73C214.709 201.73 209.574 208.537 205.665 208.253C201.756 207.969 191.858 215.336 191.858 215.336C191.858 215.336 182.202 222.71 180.13 230.222C178.972 234.482 177.584 238.65 175.973 242.701L164.037 271.638L161.834 294.596C161.834 294.596 163.053 304.806 162.812 306.362C162.571 307.918 167.822 321.954 167.822 321.954C167.822 321.954 185.173 357.82 192.262 359.66L192.771 359.238C193.074 359.424 193.396 359.566 193.728 359.66L195.188 358.449C195.275 359.798 195.238 361.155 195.077 362.496C194.1 366.037 195.442 389.148 197.149 393.679C198.856 398.209 198.25 457.608 198.25 457.608L198.009 462.851C198.009 462.851 198.009 463.02 198.068 463.311L198.009 464.553L198.185 464.66C198.368 466.323 198.308 468.011 198.009 469.65C197.397 471.95 197.149 478.45 197.149 478.45C197.149 478.45 192.269 515.152 194.582 522.526C196.895 529.9 198.863 537.979 198.863 537.979C198.863 537.979 201.306 547.178 198.98 548.749C196.654 550.321 190.041 552.958 191.402 556.79C192.64 560.332 197.338 569.821 198.035 571.209L197.977 571.937L197.019 584.148C197.174 585.76 197.545 587.333 198.12 588.809C199.169 591.468 201.208 594.228 205.085 593.929C205.737 593.875 206.492 593.783 207.222 593.668C214.318 592.549 223.055 588.824 223.055 588.824C222.601 588.485 222.186 588.081 221.817 587.62C221.468 587.223 221.192 586.746 221.005 586.219C220.818 585.692 220.724 585.125 220.729 584.554C220.833 582.331 217.295 571.738 216.416 569.131C216.279 568.756 216.207 568.541 216.207 568.541C216.207 568.541 224.273 558.622 222.931 549.83C222.931 549.83 214.005 543.698 216.943 540.333C219.882 536.968 225.134 527.302 225.134 527.302C225.134 527.302 225.375 491.159 225.134 485.763C224.882 482.017 225.033 478.249 225.583 474.548C225.681 473.989 225.798 473.445 225.922 472.908C229.986 473.622 234.088 473.988 238.197 474.004C239.696 474.004 241.221 474.004 242.758 473.897C242.758 474.408 242.778 474.96 242.817 475.553C243.156 484.506 243.788 500.204 244.302 506.038C245.032 514.401 249.065 536.937 249.065 536.937C249.065 536.937 241.37 542.747 250.408 557.066C250.408 557.066 250.408 562.256 249.808 563.007C249.168 565.463 248.653 567.961 248.264 570.488C247.886 573.186 247.73 575.915 248.342 577.333C249.808 580.722 258.604 580.446 258.604 580.446L258.819 580.4C260.48 580.198 262.158 580.386 263.756 580.953C265.355 581.52 266.841 582.455 268.13 583.703C271.473 586.862 284.158 585.474 291.026 584.47C293.717 584.071 295.515 583.703 295.515 583.703C295.602 583.345 295.633 582.971 295.606 582.6C295.535 580.614 294.212 576.26 285.246 572.374C285.246 572.374 276.815 565.705 276.933 559.895H276.757H275.779C276.49 559.849 276.946 559.895 276.946 559.895C276.946 559.895 273.642 545.714 274.991 544.564C276.34 543.414 272.3 527.7 272.3 527.7C272.3 527.7 269.987 501.331 269.863 499.484C269.868 497.899 270.073 496.323 270.469 494.808L269.863 480.351C269.863 480.351 269.746 475.545 269.863 473.981C269.843 472.624 269.75 471.269 269.583 469.926C269.524 469.39 269.466 468.83 269.401 468.278C272.561 467.335 274.613 466.461 274.613 466.461L274.248 416.138C276.933 410.006 277.428 396.553 277.415 387.01C277.415 380.877 277.18 376.34 277.18 376.34L280.848 369.295C280.848 369.295 281.695 360.863 280.353 359.016C279.76 358.18 280.027 357.314 280.516 356.601C280.77 356.364 281.038 356.149 281.318 355.957C281.318 355.957 281.278 355.888 281.233 355.789C281.489 355.537 281.761 355.309 282.047 355.106C282.047 355.106 280.744 352.73 281.911 351.726C283.005 352.6 283.982 353.259 284.725 353.796C284.673 354.355 284.621 354.677 284.621 354.677L284.934 353.911C285.65 354.386 286.087 354.677 286.087 354.677C286.087 354.677 291.834 341.209 291.71 339.224C291.586 337.238 295.619 328.875 295.619 328.875C295.619 328.875 296.108 324.483 298.31 322.644C300.513 320.804 300.017 307.474 300.017 307.474C300.017 307.474 300.63 300.529 302.096 297.693C303.562 294.857 300.76 291.031 300.76 291.031ZM190.803 285.121L190.914 288.333C190.262 287.099 189.793 286.21 189.793 286.21L190.803 285.121Z" fill="url(#paint0_linear)"/>
<path d="M286.4 348.859L284.992 355.911C284.992 355.911 273.72 349.143 271.688 340.542C269.655 331.942 275.089 328.676 275.089 328.676L285.592 333.912L286.4 348.859Z" fill="white"/>
<path opacity="0.1" d="M286.4 348.859L284.992 355.911C284.992 355.911 273.72 349.143 271.688 340.542C269.655 331.942 275.089 328.676 275.089 328.676L285.592 333.912L286.4 348.859Z" fill="black"/>
<path d="M223.14 588.87C223.14 588.87 212.715 593.377 205.548 593.944C201.743 594.243 199.742 591.499 198.713 588.855C198.15 587.384 197.788 585.82 197.638 584.217L198.569 572.067L199.065 565.598L214.292 560.945L216.448 568.702L216.65 569.292C217.517 571.883 220.99 582.423 220.885 584.623C220.881 585.187 220.974 585.745 221.157 586.265C221.341 586.786 221.612 587.257 221.954 587.651C222.304 588.115 222.702 588.525 223.14 588.87Z" fill="white"/>
<path d="M294.349 582.692C294.375 583.06 294.344 583.432 294.258 583.788C294.258 583.788 271.961 588.165 267.4 583.788C266.114 582.509 264.615 581.561 263 581.004C261.384 580.447 259.687 580.293 258.018 580.553C258.018 580.553 249.391 580.829 247.951 577.487C247.352 576.084 247.508 573.363 247.88 570.68C248.258 568.166 248.763 565.681 249.391 563.237L249.736 562.915L251.789 560.976L275.818 560.14H276.001C275.884 565.92 284.158 572.55 284.158 572.55C292.948 576.383 294.245 580.714 294.349 582.692Z" fill="white"/>
<path opacity="0.1" d="M294.349 582.692C294.372 583.061 294.339 583.432 294.251 583.788C294.251 583.788 271.961 588.165 267.4 583.788C266.115 582.51 264.617 581.562 263.003 581.005C261.388 580.448 259.692 580.294 258.024 580.553C258.024 580.553 249.391 580.829 247.958 577.487C247.358 576.076 247.508 573.363 247.88 570.68C251.202 571.071 256.448 572.044 258.506 574.367C261.621 577.901 266.899 581.427 270.137 581.703C272.671 581.894 287.833 582.462 294.349 582.692Z" fill="black"/>
<path opacity="0.1" d="M223.14 588.87C223.14 588.87 212.715 593.377 205.548 593.944C201.743 594.243 199.742 591.499 198.719 588.847C201.371 589.897 205.053 591.001 206.988 589.989C209.281 588.793 217.413 588.019 221.974 587.689C222.321 588.136 222.712 588.533 223.14 588.87Z" fill="black"/>
<path d="M238.608 225.646C230.007 221.713 218.944 208.721 221.706 202.65C222.32 201.118 222.685 199.464 222.781 197.774C222.959 195.481 222.985 193.174 222.86 190.876C222.666 187.111 222.281 183.364 221.706 179.654C221.706 179.654 248.557 180.366 246.993 185.019C246.537 186.384 246.466 188.752 246.589 191.405C246.713 194.057 247.039 197.054 247.378 199.591C247.847 203.071 248.316 205.723 248.316 205.723C248.316 205.723 246.674 208.429 245.71 208.575C244.746 208.721 250.948 231.249 238.608 225.646Z" fill="#CF6F80"/>
<path opacity="0.1" d="M216.631 569.293L216.429 569.553C208.402 558.132 198.693 572.366 198.693 572.366L198.55 572.067L199.045 565.598L214.272 560.945L216.429 568.702L216.631 569.293Z" fill="black"/>
<path opacity="0.1" d="M276.007 560.945C276.007 560.945 270.143 560.799 267.016 564.049C263.888 567.299 248.772 564.755 249.424 564.049C249.617 563.7 249.733 563.3 249.763 562.884L251.815 560.945L275.844 560.109C275.936 560.623 276.007 560.945 276.007 560.945Z" fill="black"/>
<path d="M226.619 471.252C226.182 472.523 225.851 473.839 225.629 475.185C225.085 478.868 224.934 482.618 225.179 486.345C225.42 491.711 225.179 527.669 225.179 527.669C225.179 527.669 220.025 537.259 217.152 540.639C214.279 544.02 223.016 550.091 223.016 550.091C224.319 558.829 216.422 568.702 216.422 568.702C208.395 557.281 198.687 571.523 198.687 571.523C198.687 571.523 193.409 560.792 192.093 556.959C190.777 553.126 197.247 550.474 199.521 548.918C201.795 547.362 199.41 538.186 199.41 538.186C199.41 538.186 197.488 530.145 195.207 522.81C192.927 515.474 197.722 478.956 197.722 478.956C197.722 478.956 197.97 472.471 198.563 470.21C198.862 468.578 198.922 466.898 198.739 465.243C198.7 464.683 198.654 464.215 198.622 463.901C198.589 463.587 198.563 463.441 198.563 463.441L198.654 463.257L201.912 456.113C201.912 456.113 228.183 466.753 226.619 471.252Z" fill="#4E85CA"/>
<path d="M276.007 560.102C276.007 560.102 270.143 559.956 267.016 563.168C263.888 566.38 248.772 563.873 249.424 563.168C250.075 562.463 250.023 557.243 250.023 557.243C241.155 543 248.72 537.221 248.72 537.221C248.72 537.221 244.759 514.799 244.042 506.482C243.54 500.672 242.921 485.058 242.589 476.143C242.446 472.31 242.361 469.673 242.361 469.673L249.606 467.956L250.538 467.734L268.013 463.61C268.013 463.61 268.495 467.443 268.821 470.578C268.983 471.916 269.074 473.265 269.094 474.617C268.977 476.15 269.094 480.949 269.094 480.949L269.687 495.337C269.3 496.846 269.1 498.413 269.094 499.99C269.212 501.822 271.486 528.053 271.486 528.053C271.486 528.053 275.441 543.706 274.092 544.832C272.743 545.959 276.007 560.102 276.007 560.102Z" fill="#4E85CA"/>
<path opacity="0.1" d="M246.993 185.019C246.537 186.384 246.466 188.752 246.589 191.405C242.993 193.953 238.858 195.255 234.661 195.163C230.463 195.071 226.373 193.587 222.86 190.883C222.666 187.116 222.281 183.366 221.706 179.654C221.706 179.654 248.557 180.351 246.993 185.019Z" fill="black"/>
<path d="M257.373 168.079C257.378 170.841 257.008 173.587 256.278 176.212C254.646 182.094 251.298 187.108 246.828 190.367C242.357 193.627 237.051 194.922 231.847 194.024C226.643 193.126 221.876 190.092 218.39 185.46C214.903 180.827 212.921 174.893 212.793 168.707C212.793 168.493 212.793 168.293 212.793 168.079C212.742 164.597 213.282 161.138 214.379 157.904C215.477 154.67 217.111 151.725 219.186 149.242C221.261 146.758 223.736 144.786 226.466 143.439C229.196 142.093 232.126 141.399 235.086 141.399C238.046 141.399 240.977 142.093 243.707 143.439C246.436 144.786 248.911 146.758 250.986 149.242C253.061 151.725 254.695 154.67 255.793 157.904C256.891 161.138 257.43 164.597 257.379 168.079H257.373Z" fill="#CF6F80"/>
<path opacity="0.1" d="M238.608 225.646C230.007 221.713 218.944 208.721 221.706 202.65C222.32 201.118 222.685 199.464 222.781 197.774L234.555 209.158L241.84 216.187L247.378 199.599C247.847 203.079 248.316 205.731 248.316 205.731C248.316 205.731 246.674 208.437 245.71 208.583C244.746 208.728 250.948 231.249 238.608 225.646Z" fill="black"/>
<path d="M269.055 275.954L259.223 470.271L246.4 471.26L213.197 358.587L218.644 224.818L219.791 196.556L234.555 210.821L241.846 217.85L247.547 200.779L258.148 211.649L269.055 275.954Z" fill="#4E85CA"/>
<path opacity="0.1" d="M226.619 471.252C226.182 472.523 225.851 473.839 225.629 475.185C216.298 473.49 207.237 470.159 198.745 465.304L198.569 465.197L198.628 463.962L198.661 463.319L201.918 456.174C201.918 456.174 228.183 466.753 226.619 471.252Z" fill="black"/>
<path opacity="0.1" d="M249.756 475.215C247.371 475.692 244.965 476.015 242.55 476.181C242.406 472.348 242.322 469.712 242.322 469.712L249.567 467.994L249.756 475.215Z" fill="black"/>
<path opacity="0.1" d="M268.782 470.616C264.149 472.034 256.995 473.629 250.59 472.632L250.499 467.772L267.974 463.648C267.974 463.648 268.456 467.443 268.782 470.616Z" fill="black"/>
<path opacity="0.1" d="M250.473 473.521C223.759 478.887 199.293 463.503 199.293 463.503L199.527 458.29C199.527 458.29 200.133 399.198 198.452 394.667C196.771 390.137 195.462 367.164 196.413 363.638C197.364 360.112 192.94 307.236 192.94 307.236L192.223 285.773L165.991 273.271L177.72 244.51C179.304 240.478 180.666 236.33 181.798 232.092C183.838 224.626 193.305 217.291 193.305 217.291C193.305 217.291 203.013 209.962 206.851 210.238C210.688 210.514 215.719 203.753 215.719 203.753C219.432 192.616 222.794 197.659 222.794 197.659C222.794 198.188 222.794 197.66 222.612 199.308C221.309 211.534 243.684 250.167 244.003 250.85L246.133 311.912L248.29 389.187L250.473 473.521Z" fill="black"/>
<path d="M249.756 473.521C223.042 478.887 198.569 463.503 198.569 463.503L198.811 458.29C198.811 458.29 199.416 399.198 197.729 394.667C196.041 390.137 194.738 367.164 195.696 363.638C196.654 360.112 192.223 307.236 192.223 307.236L191.5 285.773L165.255 273.225L176.983 244.464C178.564 240.43 179.926 236.283 181.062 232.046C183.095 224.58 192.569 217.245 192.569 217.245C192.569 217.245 202.277 209.916 206.108 210.192C209.939 210.468 214.976 203.707 214.976 203.707C218.696 192.57 222.794 197.614 222.794 197.614C222.794 198.142 222.404 198.38 222.612 199.262C225.479 211.12 242.967 250.121 243.286 250.804L245.443 311.866L247.599 389.141L249.756 473.521Z" fill="white"/>
<path opacity="0.1" d="M242.556 252.544C239.683 251.133 224.462 230.69 224.462 230.69V226.037C223.909 224.504 220.618 225.439 217.947 226.512L219.094 198.25L220.397 199.522C223.251 211.373 242.224 251.861 242.556 252.544Z" fill="black"/>
<path d="M243.28 250.85C240.4 249.439 225.179 228.996 225.179 228.996V224.343C224.625 222.81 221.335 223.745 218.664 224.818L219.817 196.556L221.12 197.828C223.98 209.679 242.96 250.175 243.28 250.85Z" fill="white"/>
<path opacity="0.1" d="M199.293 352.807C199.651 352.807 217.869 350.553 217.869 350.553C217.869 350.553 228.9 376.071 228.176 382.28C227.453 388.489 226.143 393.985 221.706 393.012C217.269 392.038 197.827 393.778 197.827 393.778L199.293 352.807Z" fill="black"/>
<path d="M198.569 351.113C198.928 351.113 217.145 348.859 217.145 348.859C217.145 348.859 228.17 374.385 227.453 380.586C226.736 386.787 225.414 392.291 220.983 391.318C216.553 390.344 197.103 392.084 197.103 392.084L198.569 351.113Z" fill="white"/>
<path d="M212.298 339.132C212.298 339.132 229.017 349.702 229.375 352.929C229.734 356.157 220.866 351.519 218.95 350.959C217.689 350.602 216.406 350.366 215.113 350.254L202.335 350.661L212.298 339.132Z" fill="#CF6F80"/>
<path opacity="0.1" d="M237.891 253.862C238.863 253.862 239.65 252.935 239.65 251.792C239.65 250.649 238.863 249.723 237.891 249.723C236.92 249.723 236.132 250.649 236.132 251.792C236.132 252.935 236.92 253.862 237.891 253.862Z" fill="black"/>
<path d="M237.891 253.019C238.863 253.019 239.65 252.092 239.65 250.949C239.65 249.806 238.863 248.88 237.891 248.88C236.92 248.88 236.132 249.806 236.132 250.949C236.132 252.092 236.92 253.019 237.891 253.019Z" fill="#3F3D56"/>
<path opacity="0.1" d="M241.129 343.455C242.101 343.455 242.889 342.528 242.889 341.385C242.889 340.242 242.101 339.316 241.129 339.316C240.158 339.316 239.37 340.242 239.37 341.385C239.37 342.528 240.158 343.455 241.129 343.455Z" fill="black"/>
<path d="M241.129 342.604C242.101 342.604 242.889 341.678 242.889 340.535C242.889 339.392 242.101 338.465 241.129 338.465C240.158 338.465 239.37 339.392 239.37 340.535C239.37 341.678 240.158 342.604 241.129 342.604Z" fill="#3F3D56"/>
<path opacity="0.1" d="M239.644 298.659C240.615 298.659 241.403 297.732 241.403 296.589C241.403 295.446 240.615 294.519 239.644 294.519C238.672 294.519 237.885 295.446 237.885 296.589C237.885 297.732 238.672 298.659 239.644 298.659Z" fill="black"/>
<path d="M239.644 297.815C240.615 297.815 241.403 296.889 241.403 295.746C241.403 294.603 240.615 293.676 239.644 293.676C238.672 293.676 237.885 294.603 237.885 295.746C237.885 296.889 238.672 297.815 239.644 297.815Z" fill="#3F3D56"/>
<path d="M280.197 349.825C280.197 349.825 281.396 351.941 280.197 352.929C278.998 353.918 280.314 356.31 280.314 356.31C280.314 356.31 277.324 358.372 278.64 360.227C279.956 362.082 279.122 370.46 279.122 370.46L275.525 377.466C275.525 377.466 275.74 381.981 275.753 388.083C275.753 397.603 275.278 410.987 272.645 417.089L273.01 467.151C273.01 467.151 260.416 472.563 249.873 470.915L248.31 390.582C248.31 390.582 250.59 345.026 251.431 336.288C251.922 331.751 252.123 327.177 252.03 322.605C252.03 322.605 251.672 308.93 250.466 302.583C250.466 302.583 249.163 275.088 249.033 267.476C248.974 263.835 249.137 253.211 249.32 243.108C249.522 232.062 249.75 221.644 249.75 221.644L247.371 199.507C247.371 199.507 249.75 199.223 250.466 200.35C250.787 200.703 251.136 201.019 251.509 201.293C255.614 204.558 270.117 214.6 270.117 214.6C270.117 214.6 278.145 218.356 280.067 223.737C281.989 229.118 283.324 232.936 284.256 234.469C285.188 236.002 285.696 243.207 285.696 243.207C285.696 243.207 288.459 256.468 290.615 258.714C292.772 260.96 294.349 275.248 294.349 275.248L275.291 292.879C275.291 292.879 273.616 322.207 273.258 323.341C272.899 324.476 280.197 349.825 280.197 349.825Z" fill="white"/>
<path d="M280.92 349.825C280.92 349.825 282.112 351.941 280.92 352.929C279.728 353.918 281.031 356.31 281.031 356.31C281.031 356.31 278.06 358.395 279.363 360.25C280.666 362.105 279.845 370.483 279.845 370.483L276.248 377.489C276.248 377.489 276.463 382.004 276.483 388.106C276.483 397.626 276.007 411.01 273.375 417.112L273.733 467.174C273.733 467.174 261.119 472.586 250.59 470.938L249.033 390.605C249.033 390.605 251.313 345.049 252.154 336.311C252.646 331.774 252.844 327.2 252.747 322.628C252.747 322.628 252.388 308.953 251.189 302.606C251.189 302.606 249.886 275.111 249.749 267.499C249.691 263.858 249.86 253.234 250.036 243.131C250.238 232.085 250.466 221.667 250.466 221.667L247.326 199.231C247.326 199.231 250.466 199.231 251.189 200.373C251.507 200.73 251.857 201.046 252.232 201.316C256.337 204.581 270.847 214.623 270.847 214.623C270.847 214.623 278.868 218.379 280.79 223.76C282.712 229.141 284.048 232.959 284.986 234.492C285.924 236.025 286.419 243.23 286.419 243.23C286.419 243.23 289.182 256.491 291.339 258.737C293.495 260.983 295.052 275.241 295.052 275.241L275.994 292.871C275.994 292.871 274.32 322.199 273.955 323.333C273.59 324.468 280.92 349.825 280.92 349.825Z" fill="white"/>
<path opacity="0.1" d="M258.096 228.175L259.816 234.078L250.759 244.809C250.961 233.771 251.189 223.346 251.189 223.346L248.049 200.91C248.049 200.91 251.189 200.91 251.913 202.052C252.23 202.408 252.579 202.721 252.955 202.987L260.657 229.126L258.096 228.175Z" fill="black"/>
<path d="M257.373 226.481L259.099 232.384L250.043 243.115C250.245 232.069 250.473 221.652 250.473 221.652L247.326 199.216C247.326 199.216 250.473 199.216 251.189 200.358C251.509 200.713 251.858 201.028 252.232 201.301L259.94 227.432L257.373 226.481Z" fill="white"/>
<path opacity="0.1" d="M257.373 168.079C257.378 170.841 257.008 173.587 256.278 176.212C256.155 176.234 256.029 176.228 255.908 176.192C255.788 176.157 255.674 176.093 255.574 176.005C255.405 169.106 252.519 162.629 248.968 157.117C247.971 155.453 246.762 153.98 245.384 152.748C243.991 151.517 242.258 150.94 240.523 151.131C238.569 151.445 236.842 153.009 234.868 153.208C232.262 153.461 229.929 151.338 227.342 151.23C226.291 151.242 225.253 151.518 224.3 152.038C223.346 152.559 222.497 153.313 221.811 154.25C220.452 156.142 219.442 158.345 218.846 160.72C217.822 164.322 217.264 168.084 217.191 171.881C217.158 174.027 216.983 176.718 215.288 177.5C215.416 175.921 215.264 174.329 214.841 172.823C214.418 171.318 213.734 169.932 212.832 168.753L212.793 168.707C212.793 168.493 212.793 168.293 212.793 168.079C212.742 164.597 213.282 161.138 214.379 157.904C215.477 154.67 217.111 151.725 219.186 149.242C221.261 146.758 223.736 144.786 226.466 143.439C229.196 142.093 232.126 141.399 235.086 141.399C238.046 141.399 240.977 142.093 243.707 143.439C246.436 144.786 248.911 146.758 250.986 149.242C253.061 151.725 254.695 154.67 255.793 157.904C256.891 161.138 257.43 164.597 257.379 168.079H257.373Z" fill="black"/>
<path d="M244.315 126.433C240.93 124.559 237.079 124.205 233.487 125.436C231.682 126.065 229.981 127.084 228.15 127.598C224.241 128.709 219.68 127.506 216.324 130.196C214.461 131.73 213.34 134.152 212.298 136.505L209.692 142.346C208.271 145.543 206.838 148.793 206.245 152.311C205.652 155.83 206.01 159.77 207.906 162.598C209.288 164.66 211.327 165.955 212.826 167.895C213.723 169.074 214.404 170.46 214.826 171.963C215.248 173.467 215.401 175.057 215.275 176.633C216.976 175.867 217.139 173.169 217.178 171.022C217.251 167.225 217.809 163.463 218.833 159.861C219.428 157.486 220.437 155.282 221.798 153.392C222.485 152.455 223.333 151.702 224.287 151.181C225.241 150.66 226.278 150.385 227.329 150.372C229.936 150.479 232.275 152.595 234.855 152.342C236.81 152.15 238.543 150.579 240.51 150.272C242.245 150.079 243.979 150.656 245.371 151.89C246.749 153.119 247.955 154.593 248.948 156.259C252.506 161.77 255.392 168.232 255.561 175.146C256.298 175.783 257.36 174.955 257.725 173.973C258.089 172.992 258.102 171.842 258.565 170.907C259.099 169.826 260.122 169.252 260.924 168.439C262.957 166.377 263.465 162.905 263.387 159.754C263.308 156.604 262.787 153.407 263.295 150.31C263.602 148.409 264.292 146.631 264.67 144.753C265.048 142.875 265.094 140.767 264.201 139.15C262.898 136.773 260.155 136.306 257.764 136.083C255.047 135.808 252.616 136.16 250.883 133.47C250.07 132.066 249.154 130.747 248.147 129.53C247.801 129.131 244.315 126.601 244.315 126.433Z" fill="#512E4E"/>
<path opacity="0.1" d="M173.497 288.08L166.689 273.271L164.532 296.121C164.532 296.121 165.731 306.27 165.49 307.826C165.249 309.382 170.403 323.333 170.403 323.333C170.403 323.333 187.428 359.008 194.38 360.848L217.869 341.102L211.64 331.796C211.64 331.796 209.483 330.807 208.942 331.796C208.942 331.796 197.377 308.386 196.178 306.692C194.979 304.998 195.214 301.617 195.214 301.617C195.214 301.617 193.416 299.364 194.015 297.248C194.615 295.132 190.542 287.797 190.542 287.797L194.256 283.711L173.497 288.08Z" fill="black"/>
<path d="M167.047 271.584L165.249 273.271L163.092 296.121C163.092 296.121 164.291 306.27 164.05 307.826C163.809 309.382 168.969 323.333 168.969 323.333C168.969 323.333 185.988 359.008 192.94 360.848L216.435 341.102L210.2 331.796C210.2 331.796 208.043 330.807 207.502 331.796C207.502 331.796 195.937 308.386 194.738 306.692C193.539 304.998 193.78 301.617 193.78 301.617C193.78 301.617 191.982 299.364 192.582 297.248C193.181 295.132 189.102 287.797 189.102 287.797L192.816 283.711L167.047 271.584Z" fill="white"/>
<path opacity="0.1" d="M278.64 361.101C279.943 362.963 279.122 371.326 279.122 371.326L275.525 378.333C275.525 378.333 275.74 382.855 275.753 388.949L269.707 391.172C269.16 391.373 268.581 391.417 268.017 391.301C267.453 391.185 266.921 390.911 266.465 390.504C266.009 390.097 265.643 389.567 265.396 388.959C265.15 388.351 265.03 387.683 265.048 387.01L266.091 347.449L280.197 353.796C278.998 354.777 280.314 357.184 280.314 357.184C280.314 357.184 277.324 359.238 278.64 361.101Z" fill="black"/>
<path d="M279.363 360.25C280.666 362.113 279.845 370.483 279.845 370.483L276.248 377.489C276.248 377.489 276.463 382.004 276.483 388.106L270.326 390.367C269.791 390.563 269.223 390.605 268.672 390.491C268.12 390.377 267.599 390.109 267.153 389.71C266.707 389.311 266.348 388.792 266.106 388.197C265.865 387.602 265.748 386.948 265.765 386.289L266.814 346.606L280.927 352.952C279.721 353.934 281.037 356.333 281.037 356.333C281.037 356.333 278.06 358.395 279.363 360.25Z" fill="white"/>
<path d="M284.035 341.393C284.035 341.393 283.077 348.591 280.679 349.012C278.281 349.434 277.206 360.656 274.815 360.258C272.424 359.859 274.007 349.825 274.092 347.878C274.176 345.931 271.486 337.867 273.499 336.035C275.512 334.203 281.884 336.035 281.884 336.035L284.035 341.393Z" fill="#CF6F80"/>
<path opacity="0.1" d="M289.136 285.965L293.658 275.233C293.658 275.233 295.456 283.412 295.456 287.781C295.456 292.151 297.971 292.58 297.971 292.58C297.971 292.58 300.728 296.413 299.275 299.203C297.822 301.993 297.235 308.938 297.235 308.938C297.235 308.938 297.711 322.191 295.554 324.023C293.398 325.855 292.948 330.232 292.948 330.232C292.948 330.232 288.986 338.549 289.11 340.527C289.234 342.505 283.598 355.896 283.598 355.896C283.598 355.896 286.354 339.254 270.293 332.064C270.293 332.064 270.169 326.415 271.368 324.866C272.567 323.318 274.437 322.613 273.264 314.787C272.092 306.96 272.925 297.608 272.925 295.73C272.925 293.852 276.522 282.14 276.522 282.14L289.136 285.965Z" fill="black"/>
<path d="M291.091 273.7L295.039 275.233C295.039 275.233 296.844 283.412 296.844 287.781C296.844 292.151 299.359 292.58 299.359 292.58C299.359 292.58 302.115 296.413 300.662 299.203C299.209 301.993 298.63 308.938 298.63 308.938C298.63 308.938 299.105 322.191 296.949 324.023C294.792 325.855 294.31 330.232 294.31 330.232C294.31 330.232 290.355 338.549 290.479 340.527C290.602 342.505 284.96 355.896 284.96 355.896C284.96 355.896 287.722 339.254 271.655 332.064C271.655 332.064 271.538 326.415 272.737 324.866C273.935 323.318 275.805 322.613 274.633 314.787C273.46 306.96 274.294 297.608 274.294 295.73C274.294 293.852 277.89 282.14 277.89 282.14L291.091 273.7Z" fill="white"/>
<path opacity="0.1" d="M203.88 551.854C203.88 551.854 210.174 547.201 214.305 550.581C218.436 553.962 203.88 551.854 203.88 551.854Z" fill="black"/>
<path opacity="0.1" d="M252.786 537.466C252.786 537.466 258.357 536.623 263.035 542.548C267.713 548.473 252.786 537.466 252.786 537.466Z" fill="black"/>
<g opacity="0.1">
<path opacity="0.1" d="M260.937 166.76C260.135 167.573 259.106 168.155 258.572 169.236C258.116 170.164 258.102 171.306 257.738 172.302C257.373 173.299 256.311 174.111 255.574 173.483C255.405 166.584 252.512 160.107 248.961 154.588C247.968 152.922 246.762 151.448 245.384 150.218C243.99 148.985 242.254 148.408 240.517 148.601C238.562 148.915 236.842 150.479 234.868 150.671C232.262 150.931 229.923 148.808 227.336 148.701C226.285 148.713 225.248 148.99 224.295 149.512C223.342 150.034 222.495 150.79 221.811 151.729C220.45 153.616 219.441 155.817 218.846 158.19C217.822 161.792 217.264 165.554 217.191 169.351C217.152 171.49 216.983 174.157 215.302 174.955C215.341 175.521 215.341 176.09 215.302 176.656C216.996 175.89 217.165 173.192 217.204 171.045C217.277 167.248 217.835 163.486 218.859 159.884C219.454 157.509 220.463 155.305 221.824 153.415C222.509 152.479 223.357 151.725 224.31 151.204C225.262 150.684 226.298 150.408 227.349 150.395C229.955 150.502 232.301 152.618 234.881 152.365C236.836 152.173 238.569 150.602 240.53 150.295C242.267 150.102 244.003 150.679 245.397 151.912C246.775 153.142 247.981 154.616 248.974 156.282C252.525 161.793 255.418 168.255 255.587 175.169C256.324 175.805 257.386 174.978 257.751 173.996C258.116 173.015 258.129 171.865 258.585 170.93C259.119 169.849 260.148 169.275 260.95 168.462C262.983 166.4 263.491 162.928 263.413 159.777C263.413 159.678 263.413 159.578 263.413 159.486C263.289 162.215 262.67 164.997 260.937 166.76Z" fill="black"/>
<path opacity="0.1" d="M212.839 166.216C211.34 164.277 209.294 162.981 207.919 160.927C206.762 159.108 206.101 156.919 206.023 154.649C205.818 157.486 206.492 160.314 207.919 162.613C209.294 164.675 211.34 165.971 212.839 167.91C214.277 169.807 215.141 172.212 215.295 174.748C215.395 173.204 215.229 171.653 214.806 170.187C214.384 168.721 213.715 167.37 212.839 166.216Z" fill="black"/>
<path opacity="0.1" d="M264.683 143.074C264.299 144.952 263.615 146.738 263.302 148.632C263.117 149.897 263.049 151.182 263.1 152.464C263.122 151.734 263.189 151.006 263.302 150.287C263.615 148.386 264.299 146.608 264.683 144.73C264.907 143.694 264.98 142.621 264.898 141.557C264.858 142.068 264.786 142.575 264.683 143.074Z" fill="black"/>
</g>
<path opacity="0.1" d="M86.4816 583.021C121.545 583.021 149.97 577.65 149.97 571.025C149.97 564.4 121.545 559.029 86.4816 559.029C51.4181 559.029 22.9936 564.4 22.9936 571.025C22.9936 577.65 51.4181 583.021 86.4816 583.021Z" fill="#4E85CA"/>
<path d="M88.5275 341.217H84.4422V449.429H88.5275V341.217Z" fill="#535461"/>
<path d="M114.199 449.099L113.945 453.975L113.58 460.873L113.43 463.74L113.072 470.639L112.915 473.506L112.55 480.405L108.433 558.645C108.254 562.012 106.991 565.171 104.902 567.481C102.813 569.791 100.054 571.077 97.1867 571.079H75.7764C72.9101 571.077 70.152 569.791 68.0638 567.481C65.9756 565.171 64.7144 562.011 64.537 558.645L60.4387 480.351L60.0738 473.452L59.924 470.585L59.5591 463.687L59.4092 460.82L59.0444 453.921L58.7837 449.046C58.7385 448.107 58.8566 447.168 59.131 446.285C59.4054 445.403 59.8301 444.595 60.3792 443.913C60.9283 443.23 61.5902 442.687 62.3242 442.316C63.0582 441.945 63.8489 441.754 64.6478 441.756H108.439C109.235 441.764 110.021 441.964 110.749 442.343C111.476 442.722 112.13 443.273 112.67 443.961C113.21 444.649 113.624 445.46 113.887 446.344C114.15 447.228 114.256 448.165 114.199 449.099Z" fill="#3F3D56"/>
<path d="M113.945 453.974L113.58 460.85H59.3832L59.0183 453.974H113.945Z" fill="#9D9CB5"/>
<path d="M113.43 463.717L113.072 470.601H59.8979L59.5331 463.717H113.43Z" fill="#9D9CB5"/>
<path d="M112.915 473.475L112.557 480.351H60.4127L60.0478 473.475H112.915Z" fill="#9D9CB5"/>
<path d="M52.7829 381.774C76.5714 402.026 86.5011 433.7 86.5011 433.7C86.5011 433.7 57.8325 432.542 34.0375 412.29C10.2425 392.038 0.332306 360.373 0.332306 360.373C0.332306 360.373 28.9879 361.522 52.7829 381.774Z" fill="#4E85CA"/>
<path d="M0.312744 360.373C0.312744 360.373 30.076 379.804 39.6214 395.894C49.1667 411.984 86.5011 433.7 86.5011 433.7" stroke="#535461" stroke-width="2" stroke-miterlimit="10"/>
<path d="M68.1402 340.979C81.0867 351.994 86.5011 369.234 86.5011 369.234C86.5011 369.234 70.8963 368.605 57.9433 357.59C44.9902 346.575 39.5888 329.328 39.5888 329.328C39.5888 329.328 55.1872 329.956 68.1402 340.979Z" fill="#4E85CA"/>
<path d="M39.5888 329.328C39.5888 329.328 55.7866 339.906 60.9795 348.66C66.1725 357.414 86.5011 369.234 86.5011 369.234" stroke="#535461" stroke-width="2" stroke-miterlimit="10"/>
<path d="M105.299 368.36C90.4235 387.592 87.2765 412.727 87.2765 412.727C87.2765 412.727 108.25 406.671 123.112 387.431C137.974 368.191 141.134 343.064 141.134 343.064C141.134 343.064 120.174 349.127 105.299 368.36Z" fill="#4E85CA"/>
<path d="M141.147 343.072C141.147 343.072 121.77 362.787 116.844 376.37C111.918 389.953 87.2765 412.727 87.2765 412.727" stroke="#535461" stroke-width="2" stroke-miterlimit="10"/>
<path d="M651.345 361.591C651.345 361.591 640.588 298.628 644.706 290.794C644.706 290.794 644.856 283.512 644.608 274.229C644.608 273.876 644.608 273.524 644.608 273.163C645.332 273.732 646.088 274.244 646.869 274.697C650.663 276.99 655.019 277.651 659.183 276.567L655.926 272.297C655.144 271.278 654.329 270.174 654.16 268.825C653.99 267.476 654.46 266.272 654.864 265.069C657.958 255.87 658.121 244.303 652.16 237.282C647.123 231.38 645.898 223.76 640.431 218.371C636.437 214.424 634.242 208.636 632.17 203.041C630.417 198.311 628.651 193.543 627.648 188.53C626.866 184.613 626.553 180.558 625.478 176.733C624.403 172.908 622.39 169.19 619.243 167.481C618.122 166.875 616.878 166.53 615.855 165.726C614.512 164.66 613.704 162.928 612.734 161.41C607.801 153.745 591.284 158.259 583.466 161.372C581.34 162.155 579.372 163.438 577.68 165.143L577.751 165.005C577.81 164.89 577.882 164.775 577.947 164.66C577.091 165.474 576.352 166.445 575.758 167.535C574.617 169.658 574.142 172.134 573.19 174.433C572.044 177.155 565.665 184.751 568.408 187.81C568.6 188.015 568.82 188.181 569.06 188.3C570.089 188.804 571.223 188.938 572.317 188.683L572.2 189.013C571.263 191.711 570.783 194.599 570.786 197.514C570.786 210.108 579.615 220.318 590.515 220.318C592.565 220.321 594.602 219.951 596.555 219.222C596.601 219.514 596.64 219.805 596.686 220.096C596.686 220.211 596.718 220.326 596.731 220.441L596.386 221.008C596.369 220.973 596.349 220.94 596.327 220.909L586.098 237.726C584.534 239.022 575.53 246.687 575.021 252.436C574.487 258.73 573.953 266.096 573.953 266.096L573.881 267.675C573.434 268.115 572.911 268.435 572.349 268.613C571.786 268.792 571.198 268.825 570.623 268.71C567.431 268.097 567.431 282.508 567.431 282.508C567.431 282.508 565.307 284.807 563.847 282.814C562.388 280.821 558.53 287.574 558.53 287.574L534.357 288.801L533.804 288.839L532.501 284.094C532.36 283.594 532.058 283.179 531.659 282.939C531.26 282.699 530.797 282.654 530.37 282.814C530.269 282.853 530.171 282.902 530.077 282.96L529.985 283.021L529.816 283.159L529.731 283.251C529.685 283.301 529.641 283.355 529.601 283.412L529.523 283.519L529.484 283.565C529.333 283.81 529.234 284.093 529.193 284.391C529.152 284.689 529.172 284.995 529.249 285.282L530.37 289.353C525.705 290.457 520.935 293.569 524.825 302.139L505.109 297.854L511.488 304.155L544.418 312.15C543.981 313.069 544.268 314.403 545.629 316.281C551.493 324.384 562.179 326.584 566.479 327.151C567.615 330.139 569.034 332.968 570.708 335.583L570.337 343.654C570.337 343.654 559.449 405.177 557.455 408.297C558.462 406.955 559.383 405.528 560.211 404.027C557.051 416.667 552.634 433.968 551.474 436.559C549.61 440.698 547.884 457.447 550.008 458.52C550.659 458.85 552.523 458.689 555.181 458.451V459.839L555.064 512.415C555.064 512.415 555.598 544.664 554.132 547.737C552.666 550.811 552.275 557.258 552.275 557.258C552.275 557.258 546.411 569.975 541.766 575.088C541.734 575.127 541.699 575.163 541.661 575.195L541.518 573.999C541.518 573.999 535.934 582.293 523.581 581.825C523.581 581.825 516.146 587.513 527.171 587.82C538.195 588.126 552.275 587.36 552.275 587.36C552.275 587.36 562.107 569.729 570.343 572.029V585.39H572.865V571.814C574.034 570.909 575.035 569.733 575.807 568.359C576.578 566.985 577.105 565.44 577.354 563.819C577.57 562.149 577.412 560.441 576.895 558.864C576.379 557.287 575.522 555.896 574.409 554.828C573.909 554.296 573.508 553.648 573.231 552.926C572.954 552.203 572.807 551.42 572.799 550.627L572.708 550.719C572.708 550.451 572.65 550.175 572.624 549.891C571.9 542.993 570.995 528.758 574.194 518.226C578.579 503.784 579.908 483.67 576.715 471.697C575.685 467.87 574.839 463.977 574.181 460.038C574.103 459.54 574.031 459.064 573.966 458.62C576.148 458.967 578.309 459.479 580.436 460.153C587.831 462.552 604.009 462.997 617.822 462.866C617.855 463.311 617.894 463.779 617.94 464.246C618.186 467.496 618.701 470.711 619.477 473.843C621.21 479.975 622.005 507.011 622.005 507.011C622.005 507.011 624.24 529.241 623.022 538.286C622.37 543.314 621.719 548.366 621.347 553.441V553.54C621.347 553.54 617.685 565.805 615.008 572.466C614.942 572.635 614.871 572.803 614.806 572.964C614.092 573.041 613.389 573.224 612.714 573.508C612.714 573.508 609.124 581.94 605.547 583.335C601.97 584.731 603.156 589.322 611.255 587.636C619.353 585.949 631.583 584.57 631.583 584.57L632.111 575.969L634.6 572.305L633.948 580.883L636.6 580.269L636.248 569.837L640.321 563.842C640.321 563.842 645.24 558.691 637.929 548.558V548.78C637.851 548.634 637.78 548.481 637.695 548.335V548.289C636.483 546.082 635.519 541.965 637.284 534.66C640.477 521.461 642.334 509.48 642.334 509.48C642.334 509.48 649.462 477.385 640.894 462.199H641.272C640.394 460.063 639.773 457.792 639.428 455.454C639.385 455.178 639.345 454.894 639.311 454.603C645.65 454.174 651.873 452.825 656.949 449.912C656.929 449.881 653.873 373.718 651.345 361.591ZM570.858 308.47V308.624L569.555 308.7L570.858 308.47ZM566.388 309.198C566.174 309.254 565.973 309.367 565.802 309.528C565.242 310.461 564.89 311.544 564.779 312.679L562.746 312.142C562.746 312.142 561.319 311.782 559.267 311.375L558.296 310.226C560.967 309.965 563.743 309.582 566.388 309.198Z" fill="url(#paint1_linear)"/>
<path d="M633.649 569.944L632.873 580.806L635.473 580.193L635.082 568.411L633.649 569.944Z" fill="#1D2366"/>
<path d="M574.337 518.371C571.203 528.873 572.089 543.046 572.793 549.93C573.054 552.475 573.295 554.023 573.295 554.023C573.295 554.023 568.61 566.579 568.219 567.054C567.828 567.529 554.432 577.149 554.432 577.149L545.069 583.581C545.069 583.581 535.569 578.683 540.124 576.996C541.054 576.557 541.893 575.885 542.58 575.026C547.141 569.929 552.868 557.258 552.868 557.258C552.868 557.258 553.259 550.827 554.693 547.768C556.126 544.71 555.605 512.569 555.605 512.569L555.716 460.176V453.346L573.536 453.499C573.648 455.818 573.905 458.124 574.305 460.398C574.944 464.324 575.773 468.204 576.787 472.019C579.928 483.969 578.624 503.983 574.337 518.371Z" fill="#FFB0B1"/>
<path opacity="0.1" d="M573.295 554.023C573.295 554.023 568.61 566.579 568.219 567.054C567.828 567.529 554.432 577.149 554.432 577.149L545.069 583.581C545.069 583.581 535.569 578.683 540.124 576.996C541.054 576.557 541.893 575.885 542.58 575.026L542.984 578.376L546.105 578.223L572.819 549.945C573.054 552.475 573.295 554.023 573.295 554.023Z" fill="black"/>
<path d="M572.969 550.658L546.105 579.127L542.984 579.28L542.333 573.915C542.333 573.915 536.873 582.178 524.74 581.718C524.74 581.718 517.456 587.383 528.252 587.689C539.049 587.996 552.836 587.229 552.836 587.229C552.836 587.229 562.466 569.599 570.526 571.899V585.213H573.002V571.776C574.153 570.864 575.135 569.688 575.89 568.318C576.645 566.948 577.156 565.413 577.393 563.804C577.607 562.147 577.456 560.453 576.952 558.885C576.449 557.317 575.611 555.928 574.52 554.851C574.032 554.313 573.643 553.664 573.376 552.943C573.11 552.222 572.971 551.444 572.969 550.658Z" fill="#1D2366"/>
<path d="M636.125 534.745C634.391 542.027 635.336 546.128 636.522 548.328V548.374C638.043 551.09 639.101 554.128 639.636 557.319L639.741 558.009L627.518 578.974L620.885 582.04C620.885 582.04 610.219 577.755 612.167 576.529C612.656 576.23 613.418 574.635 614.291 572.435C616.897 565.805 620.494 553.571 620.494 553.571V553.471C620.872 548.42 621.471 543.384 622.136 538.37C623.328 529.348 621.139 507.203 621.139 507.203C621.139 507.203 620.357 480.274 618.663 474.15C617.898 471.036 617.39 467.843 617.145 464.614C616.793 460.781 616.715 457.623 616.715 457.623C616.715 457.623 623.739 446.125 636.613 458.543C637.643 459.534 638.549 460.69 639.304 461.977C648.198 476.863 641.037 509.656 641.037 509.656C641.037 509.656 639.246 521.583 636.125 534.745Z" fill="#FFB0B1"/>
<path opacity="0.1" d="M639.76 558.009L627.537 578.974L620.904 582.04C620.904 582.04 610.238 577.755 612.186 576.529C612.675 576.23 613.437 574.635 614.31 572.435C618.826 572.389 621.165 577.448 621.165 577.448L626.886 576.375C626.886 576.375 634.431 558.929 636.125 557.863C637.819 556.798 636.385 549.899 636.385 549.899V548.144C636.431 548.205 636.47 548.274 636.522 548.335V548.381C638.043 551.098 639.101 554.136 639.637 557.327L639.76 558.009Z" fill="black"/>
<path d="M621.556 577.901C621.556 577.901 618.298 570.864 612.056 573.462C612.056 573.462 608.544 581.894 605.032 583.259C601.52 584.623 602.693 589.223 610.629 587.544C618.565 585.865 630.528 584.478 630.528 584.478L631.049 575.9L639.115 563.812C639.115 563.812 643.924 558.684 636.77 548.588V550.344C636.77 550.344 638.203 557.242 636.509 558.308C634.815 559.373 627.296 576.828 627.296 576.828L621.556 577.901Z" fill="#1D2366"/>
<path opacity="0.1" d="M573.555 453.484C573.668 455.803 573.925 458.108 574.324 460.383C566.988 459.118 560.179 459.747 555.716 460.16V453.331L573.555 453.484Z" fill="black"/>
<path opacity="0.1" d="M640.027 463.886C640.027 463.886 629.603 464.484 617.171 464.606C616.819 460.774 616.741 457.616 616.741 457.616C616.741 457.616 623.765 446.117 636.639 458.535C637.669 459.526 638.575 460.682 639.33 461.969C639.532 462.623 639.765 463.263 640.027 463.886Z" fill="black"/>
<path d="M640.027 462.506C640.027 462.506 594.366 465.105 580.449 460.513C566.531 455.922 552.738 459.9 550.66 458.834C548.581 457.769 550.269 441.081 552.093 436.95C553.917 432.818 563.925 391.034 563.925 391.034L573.555 331.965L583.7 328.676L584.417 328.439L602.094 322.705L615.047 318.497C615.047 318.497 640.803 436.796 638.594 445.52C637.792 448.86 637.662 452.374 638.216 455.784C638.554 458.112 639.163 460.374 640.027 462.506Z" fill="#1D2366"/>
<path d="M539.987 291.568C539.987 291.568 530.865 303.066 537.772 309.474C544.678 315.883 549.22 310.088 549.22 310.088L539.987 291.568Z" fill="#C7DAF5"/>
<path opacity="0.1" d="M539.987 291.568C539.987 291.568 530.865 303.066 537.772 309.474C544.678 315.883 549.22 310.088 549.22 310.088L539.987 291.568Z" fill="black"/>
<path d="M613.685 215.972C613.685 215.972 612.616 217.168 611.007 218.931C608.714 221.453 605.319 225.14 602.309 228.229C598.139 232.499 594.698 235.634 595.93 232.959C597.161 230.283 596.927 225.623 596.314 221.261C596.269 220.97 596.23 220.679 596.184 220.395C595.677 217.192 595.004 214.028 594.171 210.921C594.171 210.921 600.908 200.68 604.635 196.64C606.023 195.107 606.993 194.478 607.052 195.544C607.117 196.977 608.029 200.143 609.163 203.501C609.196 203.608 609.228 203.707 609.267 203.815C610.023 206.114 610.877 208.475 611.626 210.514C612.773 213.642 613.685 215.972 613.685 215.972Z" fill="#FFB0B1"/>
<path opacity="0.1" d="M609.267 203.815C608.634 207.821 607.098 211.554 604.82 214.623C602.541 217.692 599.604 219.984 596.314 221.261C595.796 217.762 595.08 214.308 594.171 210.921C594.171 210.921 606.857 191.642 607.052 195.544C607.098 197.023 608.088 200.304 609.267 203.815Z" fill="black"/>
<path opacity="0.1" d="M595.05 226.412L596.692 223.691C596.692 223.691 597.78 231.495 601.781 228.053C605.781 224.611 605.977 253.954 605.977 253.954L601.683 329.481L570.656 327.296L571.535 290.802L575.047 272.405L583.733 245.66L588.9 236.822L595.05 226.412Z" fill="black"/>
<path d="M605.977 254.422L602.068 322.713L601.657 329.949L584.358 328.73L583.707 328.684L570.675 327.764L571.555 291.261L575.067 272.865L583.752 246.12L588.919 237.282L595.07 226.834L596.712 224.12C596.712 224.12 597.8 231.924 601.8 228.482L601.885 228.413C605.794 225.5 605.977 254.422 605.977 254.422Z" fill="#1D2366"/>
<path d="M575.504 266.472C575.504 266.472 573.946 270.304 570.819 269.683C567.691 269.063 567.698 283.481 567.698 283.481C567.698 283.481 565.619 285.781 564.186 283.788C562.752 281.795 558.973 288.533 558.973 288.533L535.296 289.759C535.296 289.759 545.831 295.424 543.766 312.564C543.766 312.564 579.537 309.957 580.709 305.979C581.882 302.001 575.504 266.472 575.504 266.472Z" fill="white"/>
<path opacity="0.03" d="M575.504 266.472C575.504 266.472 573.946 270.304 570.819 269.683C567.691 269.063 567.698 283.481 567.698 283.481C567.698 283.481 565.619 285.781 564.186 283.788C562.752 281.795 558.973 288.533 558.973 288.533L535.296 289.759C535.296 289.759 545.831 295.424 543.766 312.564C543.766 312.564 579.537 309.957 580.709 305.979C581.882 302.001 575.504 266.472 575.504 266.472Z" fill="black"/>
<path d="M506.692 298.766L512.934 305.036L564.316 317.738L557.944 310.088L506.692 298.766Z" fill="white"/>
<path d="M595.148 228.827C594.294 230.36 591.851 238.209 589.812 245.062C588.111 250.773 586.691 255.794 586.691 255.794C586.691 255.794 583.374 281.197 581.68 285.788C579.986 290.38 580.905 308.286 580.905 308.286L574.591 352.508C574.591 352.508 571.731 375.312 567.313 388.934C562.954 402.34 558.1 408.626 557.95 408.825C559.905 405.713 570.558 344.436 570.558 344.436L574.077 267.154C574.077 267.154 574.591 259.81 575.113 253.532C575.634 247.255 586.189 238.685 586.189 238.685L596.366 221.66C597.389 223.27 596.705 226.075 595.148 228.827Z" fill="white"/>
<path d="M568.61 328.147C568.61 328.147 553.624 327.381 546.366 317.124C539.107 306.868 563.143 313.031 563.143 313.031L569.392 314.718L568.61 328.147Z" fill="#FFB0B1"/>
<path opacity="0.1" d="M638.594 445.527C637.792 448.868 637.663 452.382 638.216 455.791C621.869 457.156 604.381 451.958 604.381 451.958C601.123 455.485 592.542 460.682 592.542 460.682L587.864 392.46C584.873 383.261 583.7 335.069 583.7 335.069C583.7 335.069 583.967 332.547 584.352 328.768C584.352 328.676 584.352 328.577 584.384 328.485C585.551 317.929 587.864 298.114 588.997 295.439C590.561 291.76 584.189 281.971 584.189 281.971L587.088 252.881L587.44 249.37C593.552 246.158 598.236 235.902 598.236 235.902L601.833 228.49C605.742 225.538 605.944 254.46 605.944 254.46L602.035 322.751L614.988 318.543C614.988 318.543 640.803 436.804 638.594 445.527Z" fill="black"/>
<path d="M655.372 450.241C637.552 460.651 605.163 451.008 605.163 451.008C601.905 454.534 593.324 459.731 593.324 459.731L588.639 391.509C585.655 382.311 584.482 334.119 584.482 334.119C584.482 334.119 588.248 298.16 589.812 294.489C590.268 293.415 590.046 291.821 589.506 290.104C586.847 281.931 585.869 273.135 586.652 264.433L587.903 251.93L588.248 248.427C594.366 245.208 599.051 234.952 599.051 234.952L602.309 228.237L608.303 215.865L611.144 210.008L611.626 210.522L615.307 214.447C615.307 214.447 616.871 215.98 619.217 218.279C624.318 223.339 633.134 232.246 637.682 237.696C641.682 242.494 642.946 261.16 643.311 275.21C643.552 284.462 643.409 291.714 643.409 291.714C639.376 299.525 649.925 362.235 649.925 362.235C652.381 374.354 655.372 450.241 655.372 450.241Z" fill="white"/>
<path opacity="0.03" d="M621.165 234.798C621.165 234.798 608.935 262.187 610.355 272.596C611.776 283.006 615.816 294.788 613.867 297.539C613.198 298.582 612.333 299.428 611.339 300.012C610.346 300.596 609.251 300.901 608.14 300.905C606.185 301.058 600.973 305.343 600.973 305.803C600.973 306.263 596.158 306.263 591.851 308.409C587.544 310.555 581.185 311.774 581.185 311.774C581.185 311.774 568.805 311.314 567.652 312.694C566.499 314.074 565.313 322.329 567.782 328.914C570.252 335.498 572.995 340.412 575.067 341.309C577.139 342.206 590.287 337.024 600.953 335.797C611.619 334.571 623.198 324.629 623.198 324.629C623.198 324.629 635.949 319.263 638.184 310.241C640.418 301.219 635.454 251.631 635.454 251.631C635.454 251.631 631.701 228.52 621.165 234.798Z" fill="black"/>
<path opacity="0.03" d="M619.601 232.499C619.601 232.499 607.371 259.895 608.805 270.297C610.238 280.699 614.265 292.488 612.31 295.247C611.643 296.291 610.779 297.138 609.787 297.722C608.794 298.306 607.699 298.611 606.589 298.613C604.635 298.766 599.422 303.051 599.422 303.511C599.422 303.971 594.607 303.971 590.3 306.109C585.994 308.248 579.634 309.474 579.634 309.474C579.634 309.474 567.255 309.014 566.108 310.394C564.961 311.774 563.762 320.037 566.238 326.614C568.714 333.191 571.451 338.112 573.523 339.009C575.595 339.906 588.743 334.724 599.409 333.505C610.075 332.287 621.654 322.329 621.654 322.329C621.654 322.329 634.398 316.963 636.607 307.949C638.816 298.935 633.877 249.332 633.877 249.332C633.877 249.332 630.137 226.228 619.601 232.499Z" fill="black"/>
<path d="M620.78 233.419C620.78 233.419 608.551 260.815 609.984 271.216C611.417 281.618 615.444 293.408 613.496 296.16C612.829 297.206 611.964 298.055 610.97 298.641C609.976 299.226 608.88 299.531 607.769 299.532C605.814 299.686 600.602 303.971 600.602 304.423C600.602 304.875 595.793 304.883 591.48 307.029C587.166 309.175 580.814 310.394 580.814 310.394C580.814 310.394 568.434 309.934 567.281 311.314C566.128 312.694 564.942 320.957 567.411 327.534C569.881 334.111 572.624 339.032 574.696 339.929C576.768 340.826 589.916 335.644 600.582 334.418C611.248 333.191 622.826 323.249 622.826 323.249C622.826 323.249 635.577 317.883 637.812 308.861C640.047 299.839 635.115 250.252 635.115 250.252C635.115 250.252 631.31 227.179 620.78 233.419Z" fill="white"/>
<path opacity="0.1" d="M620.513 306.899C620.513 306.899 610.74 304.599 614.141 308.432C617.542 312.265 617.523 315.622 621.686 315.469C625.85 315.315 620.513 306.899 620.513 306.899Z" fill="black"/>
<path opacity="0.1" d="M637.03 389.363C637.03 389.363 632.613 392.881 641.064 400.991C649.514 409.101 637.03 389.363 637.03 389.363Z" fill="black"/>
<path opacity="0.1" d="M628.599 418.284C628.599 418.744 627.035 435.148 632.886 439.249C638.737 443.35 628.599 418.284 628.599 418.284Z" fill="black"/>
<path d="M535.7 289.721C530.982 289.912 520.792 291.606 526.076 303.204C530.748 313.468 538.599 306.608 543.017 301.403C541.939 296.55 539.32 292.369 535.7 289.721Z" fill="#FFB0B1"/>
<path d="M543.075 301.311L543.271 301.073L543.075 301.311Z" fill="#FFB0B1"/>
<path opacity="0.1" d="M619.217 218.747C614.213 222.771 610.017 226.167 609.196 226.872C606.954 228.827 602.68 240.302 599.924 246.158C597.728 250.873 590.594 252.084 587.903 252.383L588.248 248.88C594.366 245.66 599.051 235.404 599.051 235.404L611.144 210.461L615.307 214.914C615.307 214.914 616.871 216.447 619.217 218.747Z" fill="black"/>
<path d="M619.217 218.287C614.213 222.311 610.017 225.707 609.196 226.42C606.954 228.367 602.68 239.842 599.924 245.698C597.728 250.413 590.594 251.624 587.903 251.923L588.248 248.42C594.366 245.2 599.051 234.944 599.051 234.944L611.144 210.001L615.307 214.439C615.307 214.439 616.871 215.957 619.217 218.287Z" fill="#DCE7FF"/>
<path d="M609.587 198.756C609.589 203.357 608.403 207.851 606.185 211.641C603.566 216.123 599.668 219.351 595.199 220.741C590.729 222.13 585.985 221.589 581.826 219.215C577.666 216.841 574.368 212.791 572.53 207.801C570.692 202.811 570.435 197.211 571.805 192.017C573.176 186.823 576.085 182.38 580.002 179.492C583.92 176.605 588.587 175.466 593.158 176.281C597.729 177.096 601.899 179.812 604.914 183.935C607.928 188.059 609.586 193.317 609.587 198.756Z" fill="#FFB0B1"/>
<path opacity="0.1" d="M643.311 275.218C640.665 273.303 638.51 270.58 637.076 267.338C635.988 264.808 635.265 261.888 633.408 260.094C631.733 258.484 629.498 258.093 627.413 257.373C620.559 254.989 614.812 247.63 614.597 239.229C614.493 235.274 615.542 231.326 615.066 227.409C614.796 225.192 614.046 223.094 612.89 221.315C612.316 220.464 611.686 219.667 611.007 218.931C610.095 217.919 609.137 216.938 608.303 215.865C607.778 215.2 607.319 214.467 606.935 213.68C606.625 213.036 606.374 212.355 606.185 211.649C604.882 206.958 606.068 201.393 604.635 196.648L604.557 196.387C604.016 194.701 602.915 193.014 601.383 192.884C599.852 192.754 598.543 194.248 597.083 194.915C594.027 196.31 590.73 193.934 588.183 191.512C585.635 189.09 582.762 186.322 579.524 186.859C577.38 187.219 575.686 188.936 573.712 189.825C573.266 190.028 572.806 190.185 572.337 190.293C574.008 185.391 577.077 181.327 581.019 178.798C584.96 176.27 589.526 175.435 593.934 176.437C598.342 177.439 602.315 180.216 605.171 184.29C608.028 188.365 609.589 193.482 609.587 198.763C609.589 200.358 609.447 201.949 609.163 203.508C609.196 203.615 609.228 203.715 609.267 203.822C610.023 206.122 610.877 208.483 611.626 210.522L615.307 214.447C615.307 214.447 616.871 215.98 619.217 218.279C624.318 223.339 633.134 232.246 637.682 237.696C641.682 242.51 642.933 261.167 643.311 275.218Z" fill="black"/>
<path d="M573.484 175.821C574.415 173.59 574.878 171.091 575.992 168.976C577.628 165.91 580.482 163.947 583.414 162.759C591.069 159.655 607.248 155.147 612.082 162.759C613.033 164.292 613.822 165.994 615.138 167.052C616.141 167.857 617.353 168.201 618.454 168.807C621.536 170.509 623.504 174.219 624.553 178.005C625.602 181.792 625.915 185.855 626.684 189.757C627.667 194.762 629.394 199.507 631.114 204.221C633.141 209.786 635.291 215.558 639.2 219.491C644.536 224.856 645.716 232.453 650.668 238.34C656.532 245.331 656.343 256.867 653.319 266.027C652.922 267.231 652.472 268.488 652.629 269.768C652.785 271.048 653.593 272.213 654.355 273.232L657.561 277.487C649.977 279.641 641.396 274.98 637.864 266.801C636.776 264.272 636.053 261.359 634.19 259.557C632.522 257.948 630.28 257.564 628.202 256.844C621.347 254.452 615.601 247.086 615.386 238.685C615.281 234.737 616.33 230.789 615.855 226.88C615.59 224.648 614.838 222.535 613.672 220.748C611.88 217.996 609.176 216.148 607.717 213.082C605.247 207.954 607.124 201.293 605.345 195.789C604.798 194.103 603.703 192.416 602.172 192.286C600.641 192.156 599.331 193.651 597.865 194.317C594.816 195.713 591.519 193.344 588.971 190.914C586.424 188.484 583.55 185.725 580.306 186.269C578.162 186.621 576.474 188.338 574.5 189.235C573.041 189.894 570.083 190.485 568.806 189.036C566.108 186.115 572.357 178.55 573.484 175.821Z" fill="#591D4B"/>
<path opacity="0.1" d="M639.676 264.272C638.581 261.742 637.864 258.829 636.001 257.036C634.333 255.426 632.091 255.035 630.006 254.314C623.159 251.93 617.412 244.564 617.19 236.163C617.086 232.215 618.135 228.26 617.666 224.35C617.393 222.133 616.642 220.035 615.483 218.256C613.685 215.504 610.981 213.657 609.528 210.591C607.059 205.471 608.935 198.809 607.15 193.298C606.609 191.619 605.508 189.933 603.983 189.795C602.459 189.657 601.136 191.167 599.676 191.834C596.627 193.229 593.324 190.853 590.783 188.43C588.242 186.008 585.355 183.241 582.117 183.778C579.973 184.138 578.279 185.855 576.311 186.744C574.852 187.403 571.887 188.001 570.61 186.552C567.926 183.486 574.174 175.936 575.295 173.222C576.227 170.984 576.689 168.493 577.81 166.377C577.869 166.262 577.934 166.147 577.999 166.032C577.161 166.849 576.437 167.817 575.855 168.899C574.741 171.015 574.279 173.498 573.347 175.744C572.22 178.458 565.971 186.031 568.662 189.074C569.965 190.531 572.897 189.933 574.357 189.274C576.311 188.377 578.019 186.66 580.162 186.307C583.42 185.763 586.287 188.53 588.828 190.952C591.369 193.375 594.692 195.751 597.728 194.356C599.188 193.689 600.465 192.186 602.029 192.324C603.592 192.462 604.635 194.141 605.202 195.827C606.98 201.331 605.104 207.992 607.573 213.121C609.033 216.133 611.737 218.019 613.529 220.786C614.695 222.574 615.447 224.687 615.711 226.918C616.187 230.828 615.138 234.775 615.242 238.723C615.457 247.155 621.204 254.491 628.058 256.882C630.124 257.603 632.378 257.986 634.046 259.596C635.916 261.397 636.652 264.31 637.721 266.84C641.252 275.019 649.833 279.679 657.418 277.525L655.906 275.517C649.332 275.632 642.679 271.232 639.676 264.272Z" fill="black"/>
<path opacity="0.1" d="M594.757 229.287C593.904 230.82 591.46 238.669 589.421 245.522C587.512 244.648 585.779 239.076 585.779 239.076L595.956 222.043C596.998 223.729 596.314 226.527 594.757 229.287Z" fill="black"/>
<path d="M595.148 228.827C594.294 230.36 591.851 238.209 589.812 245.062C587.903 244.196 586.17 238.616 586.17 238.616L596.347 221.591C597.389 223.27 596.705 226.075 595.148 228.827Z" fill="#DCE7FF"/>
<path d="M535.973 307.136L530.331 286.202C530.264 285.957 530.239 285.699 530.257 285.443C530.276 285.186 530.337 284.936 530.437 284.708C530.538 284.479 530.676 284.276 530.843 284.11C531.01 283.945 531.204 283.819 531.412 283.742C531.832 283.587 532.287 283.635 532.678 283.873C533.068 284.111 533.363 284.521 533.497 285.014L539.14 305.925L538.58 310.302L535.973 307.136Z" fill="#BE8B87"/>
<path opacity="0.1" d="M530.865 284.363C531.286 284.206 531.742 284.252 532.134 284.491C532.526 284.729 532.822 285.141 532.957 285.635L538.599 306.546L538.176 309.827L538.586 310.333L539.146 305.956L533.471 285.045C533.337 284.552 533.042 284.142 532.652 283.904C532.261 283.665 531.806 283.618 531.386 283.772C531.033 283.907 530.728 284.177 530.52 284.539C530.631 284.469 530.746 284.41 530.865 284.363Z" fill="white"/>
<path d="M535.973 307.136L539.14 305.956L538.677 309.543L538.58 310.333L537.654 309.198L535.973 307.136Z" fill="#EFC8C4"/>
<path d="M537.654 309.198C537.709 309.117 537.778 309.049 537.856 308.999C537.902 308.965 537.955 308.947 538.009 308.947C538.064 308.947 538.117 308.965 538.163 308.999C538.207 309.062 538.244 309.132 538.273 309.206C538.316 309.291 538.375 309.363 538.445 309.417C538.515 309.472 538.594 309.507 538.677 309.52L538.58 310.287L537.654 309.198Z" fill="#727A9C"/>
<path d="M530.298 293.638C530.298 293.638 541.616 293.561 538.951 299.226C536.286 304.89 532.123 305.573 532.123 305.573L530.298 293.638Z" fill="#FFB0B1"/>
<path d="M459.91 39.4154H459.421C439.979 39.4154 422.784 51.519 412.894 69.3794C403.003 51.519 385.808 39.4154 366.366 39.4154H365.877C351.286 39.579 337.339 46.5105 327.068 58.7036C316.796 70.8967 311.03 87.3661 311.022 104.533C311.022 125.85 318.958 156.098 334.433 180.987C363.916 228.413 412.894 269.906 412.894 269.906C412.894 269.906 461.871 228.421 491.348 180.987C506.829 156.098 514.759 125.85 514.759 104.533C514.751 87.3674 508.985 70.8992 498.715 58.7063C488.445 46.5134 474.5 39.581 459.91 39.4154ZM452.919 184.636C450.705 184.626 448.545 183.829 446.723 182.349C444.9 180.868 443.501 178.775 442.709 176.342H431.085C430.32 176.336 429.575 176.05 428.955 175.522C428.334 174.994 427.87 174.252 427.625 173.399L424.055 160.743L412.757 207.188C412.537 208.082 412.076 208.868 411.444 209.427C410.812 209.987 410.043 210.291 409.251 210.292H409.023C408.198 210.245 407.411 209.866 406.794 209.219C406.178 208.572 405.769 207.695 405.635 206.735L393.992 124.348L385.482 173.1C385.287 174.026 384.834 174.848 384.195 175.436C383.556 176.024 382.769 176.343 381.958 176.342H365.584C365.093 176.367 364.603 176.274 364.143 176.07C363.684 175.866 363.264 175.554 362.909 175.154C362.555 174.754 362.273 174.274 362.08 173.743C361.887 173.211 361.788 172.639 361.788 172.061C361.788 171.483 361.887 170.911 362.08 170.379C362.273 169.848 362.555 169.368 362.909 168.968C363.264 168.568 363.684 168.256 364.143 168.052C364.603 167.848 365.093 167.755 365.584 167.78H379.091L391.145 102.233C391.342 101.264 391.82 100.406 392.496 99.8055C393.173 99.205 394.005 98.8994 394.851 98.9411C395.698 98.9827 396.506 99.369 397.137 100.034C397.768 100.699 398.183 101.601 398.312 102.586L410.203 186.629L420.328 145.075C420.539 144.2 420.984 143.428 421.599 142.876C422.213 142.323 422.962 142.019 423.736 142.009H423.807C424.573 142.009 425.319 142.294 425.939 142.822C426.559 143.351 427.022 144.096 427.26 144.952L433.717 167.803H442.566C443.195 165.554 444.34 163.554 445.874 162.023C447.408 160.491 449.273 159.488 451.261 159.125C453.249 158.761 455.284 159.051 457.141 159.962C458.998 160.873 460.606 162.37 461.785 164.288C462.965 166.206 463.671 168.47 463.826 170.83C463.981 173.19 463.579 175.555 462.664 177.663C461.748 179.771 460.356 181.541 458.64 182.777C456.924 184.013 454.951 184.667 452.939 184.667L452.919 184.636Z" fill="#4E85CA"/>
</g>
<defs>
<linearGradient id="paint0_linear" x1="232.17" y1="593.967" x2="232.17" y2="122.286" gradientUnits="userSpaceOnUse">
<stop stop-color="#808080" stop-opacity="0.25"/>
<stop offset="0.54" stop-color="#808080" stop-opacity="0.12"/>
<stop offset="1" stop-color="#808080" stop-opacity="0.1"/>
</linearGradient>
<linearGradient id="paint1_linear" x1="145438" y1="355890" x2="145438" y2="113772" gradientUnits="userSpaceOnUse">
<stop stop-color="#808080" stop-opacity="0.25"/>
<stop offset="0.54" stop-color="#808080" stop-opacity="0.12"/>
<stop offset="1" stop-color="#808080" stop-opacity="0.1"/>
</linearGradient>
<clipPath id="clip0">
<rect width="720" height="600" fill="white"/>
</clipPath>
</defs>
</svg>
