<svg width="80" height="70" viewBox="0 0 80 70" fill="none" xmlns="http://www.w3.org/2000/svg">
<g clip-path="url(#clip0)">
<path d="M40.0001 23.2791C38.7471 24.482 36.6552 26.7803 34.539 29.6352C31.4207 33.8424 29.5591 37.561 29.5591 39.5822C29.5591 44.6198 34.2429 48.718 40.0001 48.718C45.7573 48.718 50.4411 44.6198 50.4411 39.5822C50.4411 37.561 48.5793 33.8425 45.461 29.6352C43.3451 26.7803 41.2531 24.482 40.0001 23.2791Z" fill="#C44242"/>
<path d="M70.4177 9.32158L40.7866 0.118524C40.2777 -0.0395081 39.7223 -0.0395081 39.2134 0.118524L9.58229 9.32158C8.64413 9.61295 8.01733 10.3897 8.01733 11.2608V38.4223C8.01733 54.3637 21.6368 67.9317 39.6973 69.9829C39.7978 69.9942 39.899 70 40.0001 70C40.1012 70 40.2023 69.9942 40.3028 69.9829C58.3634 67.9317 71.9828 54.3636 71.9828 38.4223V11.2608C71.9828 10.3897 71.356 9.61295 70.4177 9.32158ZM40.0001 52.8335C31.6495 52.8335 24.8558 46.889 24.8558 39.5822C24.8558 35.7004 28.2908 30.3942 31.1724 26.6264C32.6359 24.7127 34.2341 22.8428 35.6722 21.3613C38.0023 18.9607 38.9243 18.5384 40.0001 18.5384C41.0759 18.5384 41.9979 18.9607 44.3279 21.3613C45.7661 22.843 47.3641 24.7129 48.8278 26.6265C51.7094 30.3944 55.1445 35.7005 55.1445 39.5823C55.1444 46.889 48.3506 52.8335 40.0001 52.8335Z" fill="#4E85CA"/>
</g>
<defs>
<clipPath id="clip0">
<rect width="80" height="70" fill="white"/>
</clipPath>
</defs>
</svg>
