<svg width="800" height="500" viewBox="0 0 800 500" fill="none" xmlns="http://www.w3.org/2000/svg">
<path d="M610.866 64.7882H1.85577V66.6382H610.866V64.7882Z" fill="#3F3D56"/>
<path d="M197.167 103.5H39.0658V105.362H197.167V103.5Z" fill="#3F3D56"/>
<path d="M197.167 116.533H39.0658V118.394H197.167V116.533Z" fill="#3F3D56"/>
<path d="M197.167 129.565H39.0658V131.427H197.167V129.565Z" fill="#3F3D56"/>
<path d="M77.8424 56.7368H42.2812V87.0181H77.8424V56.7368Z" fill="#D0CDE1"/>
<path d="M72.6564 82.3594H35.6135V50.5252H72.6564V82.3594ZM37.0952 80.8065H71.1747V52.0781H37.0952V80.8065Z" fill="#3F3D56"/>
<path d="M7.061 74.1668C10.9607 74.1668 14.122 70.8536 14.122 66.7666C14.122 62.6796 10.9607 59.3665 7.061 59.3665C3.16132 59.3665 0 62.6796 0 66.7666C0 70.8536 3.16132 74.1668 7.061 74.1668Z" fill="#4E85CA"/>
<path d="M800 103.5H641.898V105.362H800V103.5Z" fill="#3F3D56"/>
<path d="M800 116.533H641.898V118.394H800V116.533Z" fill="#3F3D56"/>
<path d="M800 129.565H641.898V131.427H800V129.565Z" fill="#3F3D56"/>
<path d="M680.675 56.7368H645.114V87.0181H680.675V56.7368Z" fill="#D0CDE1"/>
<path d="M675.489 82.3594H638.446V50.5252H675.489V82.3594ZM639.928 80.8065H674.007V52.0781H639.928V80.8065Z" fill="#3F3D56"/>
<path d="M609.894 74.1668C613.793 74.1668 616.955 70.8536 616.955 66.7666C616.955 62.6796 613.793 59.3665 609.894 59.3665C605.994 59.3665 602.833 62.6796 602.833 66.7666C602.833 70.8536 605.994 74.1668 609.894 74.1668Z" fill="#4E85CA"/>
<path d="M499.025 26.0645H340.924V27.9262H499.025V26.0645Z" fill="#3F3D56"/>
<path d="M499.025 13.0322H340.924V14.894H499.025V13.0322Z" fill="#3F3D56"/>
<path d="M499.025 0H340.924V1.86175H499.025V0Z" fill="#3F3D56"/>
<path d="M379.7 44.4086H344.139V74.6899H379.7V44.4086Z" fill="#D0CDE1"/>
<path d="M374.514 80.9013H337.471V49.0671H374.514V80.9013ZM338.953 79.3484H373.032V50.62H338.953V79.3484Z" fill="#3F3D56"/>
<path d="M308.919 72.0601C312.818 72.0601 315.98 68.747 315.98 64.66C315.98 60.573 312.818 57.2598 308.919 57.2598C305.019 57.2598 301.858 60.573 301.858 64.66C301.858 68.747 305.019 72.0601 308.919 72.0601Z" fill="#4E85CA"/>
<path d="M118.362 81.4387C127.136 81.4387 134.249 73.984 134.249 64.7883C134.249 55.5926 127.136 48.1379 118.362 48.1379C109.588 48.1379 102.475 55.5926 102.475 64.7883C102.475 73.984 109.588 81.4387 118.362 81.4387Z" fill="white"/>
<path d="M118.348 46.0339C114.872 46.0339 111.474 47.1143 108.583 49.1383C105.693 51.1624 103.44 54.0392 102.11 57.4051C100.78 60.771 100.432 64.4747 101.11 68.0478C101.788 71.621 103.462 74.9032 105.92 77.4793C108.378 80.0554 111.51 81.8098 114.919 82.5206C118.329 83.2313 121.863 82.8666 125.074 81.4724C128.286 80.0782 131.031 77.7172 132.962 74.688C134.893 71.6588 135.924 68.0974 135.924 64.4542C135.924 62.0352 135.47 59.6399 134.586 57.4051C133.703 55.1702 132.408 53.1396 130.776 51.4291C129.144 49.7186 127.207 48.3618 125.074 47.4361C122.942 46.5104 120.656 46.0339 118.348 46.0339ZM115.316 72.6973L107.756 64.7738L109.877 62.5514L115.323 68.2598L126.82 56.2112L128.94 58.4336L115.316 72.6973Z" fill="#4E85CA"/>
<path d="M365.136 440.347C380.248 440.347 392.498 437.448 392.498 433.871C392.498 430.295 380.248 427.396 365.136 427.396C350.025 427.396 337.775 430.295 337.775 433.871C337.775 437.448 350.025 440.347 365.136 440.347Z" fill="#D0CDE1"/>
<path d="M367.784 432.946C376.559 432.946 383.672 425.492 383.672 416.296C383.672 407.1 376.559 399.646 367.784 399.646C359.01 399.646 351.897 407.1 351.897 416.296C351.897 425.492 359.01 432.946 367.784 432.946Z" fill="white"/>
<path d="M367.77 397.541C364.294 397.541 360.896 398.622 358.005 400.646C355.115 402.67 352.862 405.547 351.532 408.913C350.202 412.278 349.854 415.982 350.532 419.555C351.21 423.129 352.884 426.411 355.342 428.987C357.8 431.563 360.932 433.317 364.341 434.028C367.751 434.739 371.285 434.374 374.496 432.98C377.708 431.586 380.453 429.225 382.384 426.195C384.315 423.166 385.346 419.605 385.346 415.962C385.346 413.543 384.892 411.147 384.008 408.913C383.125 406.678 381.83 404.647 380.198 402.937C378.566 401.226 376.629 399.869 374.496 398.944C372.364 398.018 370.078 397.541 367.77 397.541ZM364.738 424.205L357.178 416.281L359.299 414.059L364.745 419.767L376.242 407.719L378.362 409.941L364.738 424.205Z" fill="#4E85CA"/>
<path d="M214.208 440.347C229.319 440.347 241.569 437.448 241.569 433.871C241.569 430.295 229.319 427.396 214.208 427.396C199.096 427.396 186.846 430.295 186.846 433.871C186.846 437.448 199.096 440.347 214.208 440.347Z" fill="#D0CDE1"/>
<path d="M285.7 440.347C300.811 440.347 313.061 437.448 313.061 433.871C313.061 430.295 300.811 427.396 285.7 427.396C270.589 427.396 258.339 430.295 258.339 433.871C258.339 437.448 270.589 440.347 285.7 440.347Z" fill="#D0CDE1"/>
<path d="M288.348 432.946C297.122 432.946 304.235 425.492 304.235 416.296C304.235 407.1 297.122 399.646 288.348 399.646C279.574 399.646 272.461 407.1 272.461 416.296C272.461 425.492 279.574 432.946 288.348 432.946Z" fill="white"/>
<path d="M288.334 397.541C284.858 397.541 281.46 398.622 278.569 400.646C275.679 402.67 273.426 405.547 272.096 408.913C270.766 412.278 270.417 415.982 271.096 419.555C271.774 423.129 273.448 426.411 275.906 428.987C278.364 431.563 281.496 433.317 284.905 434.028C288.314 434.739 291.848 434.374 295.06 432.98C298.272 431.586 301.017 429.225 302.948 426.195C304.879 423.166 305.91 419.605 305.91 415.962C305.91 413.543 305.455 411.147 304.572 408.913C303.689 406.678 302.394 404.647 300.762 402.937C299.13 401.226 297.192 399.869 295.06 398.944C292.928 398.018 290.642 397.541 288.334 397.541ZM285.302 424.205L277.742 416.281L279.862 414.059L285.309 419.767L296.806 407.719L298.926 409.941L285.302 424.205Z" fill="#4E85CA"/>
<path d="M634.337 456.534H165.663V458.384H634.337V456.534Z" fill="#3F3D56"/>
<path d="M560.699 485.062C560.699 485.117 560.532 485.21 560.223 485.339C555.236 487.467 512.729 498.993 507.742 499.862C502.446 500.787 481.263 497.087 476.85 487.837C472.437 478.587 499.798 475.812 499.798 475.812L509.507 465.636L510.884 457.931L512.155 450.836L554.521 470.262C554.521 470.262 560.699 484.137 560.699 485.062Z" fill="#2F2E41"/>
<path d="M393.884 376.835L387.706 380.535C387.706 380.535 366.523 397.185 373.584 404.586C380.645 411.986 391.236 390.71 391.236 390.71L397.415 386.085L393.884 376.835Z" fill="#FFB8B8"/>
<path d="M457.433 287.108C470.594 287.108 481.264 275.926 481.264 262.133C481.264 248.339 470.594 237.157 457.433 237.157C444.272 237.157 433.602 248.339 433.602 262.133C433.602 275.926 444.272 287.108 457.433 287.108Z" fill="#FFB8B8"/>
<path d="M473.32 253.807C473.32 253.807 502.447 262.133 505.095 261.208L496.269 294.508C496.269 294.508 471.555 276.933 467.142 276.933L473.32 253.807Z" fill="#FFB8B8"/>
<path d="M481.264 287.108C481.264 287.108 494.503 257.507 498.034 257.507C501.564 257.507 544.813 260.283 565.996 292.658C587.179 325.034 587.179 337.059 587.179 337.059L529.808 351.86L528.043 350.01C528.043 350.01 512.156 354.635 502.447 331.509L481.264 287.108Z" fill="#D0CDE1"/>
<path d="M505.095 274.158C505.095 274.158 487.442 272.308 475.085 293.583C462.729 314.859 438.015 333.359 438.015 333.359L391.236 376.835L396.532 389.785L452.137 354.635L516.569 307.459C516.569 307.459 527.16 279.708 505.095 274.158Z" fill="#D0CDE1"/>
<path d="M512.155 374.984L507.742 445.286C507.742 445.286 502.587 442.104 494.803 437.026C476.047 424.788 442.031 401.505 428.306 385.16C412.445 366.271 431.924 356.012 439.586 352.904C441.307 352.201 442.428 351.859 442.428 351.859L512.155 374.984Z" fill="#FFB8B8"/>
<path opacity="0.15" d="M560.699 485.062C560.699 485.117 560.532 485.21 560.223 485.339C540.24 483.184 523.823 471.862 510.884 457.931L512.155 450.836L554.521 470.262C554.521 470.262 560.699 484.137 560.699 485.062Z" fill="black"/>
<path d="M529.808 348.16V354.635C529.808 354.635 526.278 352.785 528.043 356.485L527.16 359.26L508.625 362.035C508.625 362.035 445.959 340.759 439.781 350.935L449.489 399.961L475.086 392.56C475.086 392.56 513.038 506.338 592.475 478.587L593.357 474.887L609.244 471.187C609.244 471.187 597.77 339.834 588.061 335.209L529.808 348.16Z" fill="#2F2E41"/>
<path opacity="0.15" d="M590.206 398.721V468.097" stroke="black" stroke-width="2" stroke-miterlimit="10"/>
<path opacity="0.15" d="M481.643 389.47L529.305 373.745" stroke="black" stroke-width="2" stroke-miterlimit="10"/>
<path opacity="0.15" d="M524.513 456.502L557.549 381.145" stroke="black" stroke-width="2" stroke-miterlimit="10"/>
<path d="M468.763 245.066C472.797 242.338 476.789 238.967 481.502 238.483C487.687 237.849 493.083 242.372 497.244 247.095C501.405 251.818 505.385 257.235 511.206 259.3C514.589 260.5 518.272 260.43 521.831 260.909C525.39 261.388 529.112 262.599 531.234 265.609C533.451 268.753 533.407 273.058 534.386 276.869C535.508 280.95 537.863 284.54 541.097 287.099C544.331 289.659 548.27 291.05 552.323 291.064C544.527 290.55 537.337 295.557 530.653 300.08C523.969 304.603 516.221 309.022 508.64 307.196C500.909 305.333 495.89 297.552 488.701 294.109C482.555 291.167 475.431 291.646 468.637 291.17C461.843 290.693 454.448 288.726 450.82 282.729C448.144 278.305 447.609 271.902 443.152 269.567C440.394 268.122 437.071 268.827 433.959 268.768C430.847 268.71 427.206 267.192 426.848 263.932C434.861 259.349 442.795 254.511 450.919 250.166C455.931 247.485 464.87 250.552 468.763 245.066Z" fill="#2F2E41"/>
<path d="M438.514 266.443C438.514 266.443 478.995 245.23 478.995 237.654C478.995 230.078 463.092 207.35 434.177 207.35C434.177 207.35 426.948 193.713 418.273 204.319C409.599 214.926 422.611 222.502 422.611 222.502C422.611 222.502 406.707 249.775 429.839 266.443H438.514Z" fill="#D0CDE1"/>
</svg>
